<?xml version="1.0" encoding="UTF-8" standalone="no"?>
<!-- Created with Inkscape (http://www.inkscape.org/) -->

<svg
   xmlns:dc="http://purl.org/dc/elements/1.1/"
   xmlns:cc="http://creativecommons.org/ns#"
   xmlns:rdf="http://www.w3.org/1999/02/22-rdf-syntax-ns#"
   xmlns:svg="http://www.w3.org/2000/svg"
   xmlns="http://www.w3.org/2000/svg"
   xmlns:sodipodi="http://sodipodi.sourceforge.net/DTD/sodipodi-0.dtd"
   xmlns:inkscape="http://www.inkscape.org/namespaces/inkscape"
   version="1.1"
   id="svg29560"
   width="440"
   height="143.10001"
   viewBox="0 0 440 143.10001"
   sodipodi:docname="imagen_footer.svg"
   inkscape:label="medio"
   inkscape:version="0.92.4 (5da689c313, 2019-01-14)">
  <metadata
     id="metadata29566">
    <rdf:RDF>
      <cc:Work
         rdf:about="">
        <dc:format>image/svg+xml</dc:format>
        <dc:type
           rdf:resource="http://purl.org/dc/dcmitype/StillImage" />
        <dc:title />
      </cc:Work>
    </rdf:RDF>
  </metadata>
  <defs
     id="defs29564" />
  <sodipodi:namedview
     pagecolor="#ffffff"
     bordercolor="#666666"
     borderopacity="1"
     objecttolerance="10"
     gridtolerance="10"
     guidetolerance="10"
     inkscape:pageopacity="0"
     inkscape:pageshadow="2"
     inkscape:window-width="1920"
     inkscape:window-height="1001"
     id="namedview29562"
     showgrid="false"
     showguides="false"
     inkscape:zoom="1.2919793"
     inkscape:cx="233.06617"
     inkscape:cy="42.884279"
     inkscape:window-x="-9"
     inkscape:window-y="-9"
     inkscape:window-maximized="1"
     inkscape:current-layer="layer1" />
  <g
     inkscape:groupmode="layer"
     id="layer1"
     inkscape:label="fondo"
     style="display:inline"
     transform="translate(0,-445.9)" />
  <g
     inkscape:groupmode="layer"
     id="layer2"
     inkscape:label="medio"
     style="display:inline"
     transform="translate(0,-445.9)">
    <path
       style="opacity:1;fill:#ffffff;fill-opacity:1;fill-rule:nonzero;stroke:none;stroke-width:7.99999952;stroke-linecap:square;stroke-linejoin:miter;stroke-miterlimit:4;stroke-dasharray:none;stroke-dashoffset:386.19207764;stroke-opacity:1;paint-order:fill markers stroke"
       d="m 61.085046,540.83016 c -1.129422,-0.3581 -4.840274,-2.8252 -4.953184,-3.29306 -0.117373,-0.48636 1.709412,-0.46172 4.650898,0.0627 1.769093,0.31543 2.756729,0.349 4.095308,0.13924 0.970191,-0.15202 2.70273,-0.35876 3.850084,-0.45942 2.736052,-0.24003 2.657956,0.12425 -0.455831,2.12621 -2.244564,1.44311 -2.452313,1.52044 -4.327947,1.61102 -1.083614,0.0524 -2.370311,-0.0317 -2.859328,-0.18676 z"
       id="path31061"
       inkscape:connector-curvature="0" />
  </g>
  <g
     inkscape:groupmode="layer"
     id="layer3"
     inkscape:label="encima"
     style="display:inline"
     transform="translate(0,-445.9)">
    <g
       id="g30422"
       transform="matrix(0.23161074,0,0,0.22752374,-537.45811,485.02847)"
       style="stroke-width:4.35619402">
      <path
         sodipodi:nodetypes="csscsc"
         inkscape:connector-curvature="0"
         id="path30327"
         d="m 2631.7368,334.47417 c 5.5589,-21.11857 13.4155,-49.10058 17.5622,-48.24883 2.6095,0.53601 1.7424,2.51489 1.5801,12.61761 -0.1002,6.23778 0.9874,24.95271 -0.6209,39.56952 -6.1047,5.10349 -17.8649,4.1771 -19.9381,3.5941 -1.988,-0.55906 0.2929,-4.96993 1.4167,-7.5324 z"
         style="display:inline;opacity:1;fill:#808080;fill-opacity:1;fill-rule:nonzero;stroke:none;stroke-width:87.12388611;stroke-linecap:square;stroke-linejoin:miter;stroke-miterlimit:4;stroke-dasharray:none;stroke-dashoffset:386.19207764;stroke-opacity:1;paint-order:fill markers stroke" />
      <path
         sodipodi:nodetypes="cccccccc"
         inkscape:connector-curvature="0"
         id="path30329"
         d="m 2552.9837,335.07962 c -5.1073,-3.93625 -9.6409,-7.90179 -13.6285,-12.89601 l -1.8526,-17.6717 -0.2108,-18.62949 c 3.0549,-0.54974 7.3565,-2.22952 10.2655,-1.68914 4.8334,17.41835 8.8624,31.7708 13.0166,49.81486 0.9909,3.14855 1.5029,5.71786 1.138,5.70956 -0.365,-0.009 -5.271,-1.71915 -8.7282,-4.63808 z"
         style="display:inline;opacity:1;fill:#808080;fill-opacity:1;fill-rule:nonzero;stroke:none;stroke-width:87.12387848;stroke-linecap:square;stroke-linejoin:miter;stroke-miterlimit:4;stroke-dasharray:none;stroke-dashoffset:386.19207764;stroke-opacity:1;paint-order:fill markers stroke" />
      <path
         sodipodi:nodetypes="scccccccccccccccccscccccccscsccccs"
         inkscape:connector-curvature="0"
         id="path30331"
         d="m 3193.3286,129.97018 c 0,-0.20829 -5.965,-6.71012 -6.6334,-11.61046 -2.7627,-20.254319 -1.0278,-27.581159 -12.5125,-31.136788 -2.6718,-0.827234 -4.6289,-2.539377 -12.1751,-4.793767 -3.5973,-17.129018 -3.959,-22.418052 -8.6938,-36.370604 -16.6294,-22.590745 -11.6453,-5.861049 -15.4979,-5.335695 -5.3789,3.358654 -18.6743,5.131384 -21.5161,6.122442 -15.1697,0.556071 -31.7771,-13.873743 -32.0525,-5.435926 -20.464,-0.03297 -40.5191,-5.066649 -59.0384,-6.816274 -41.1388,-2.910929 -34.7433,-3.890854 -46.0146,-6.34725 -9.7353,-2.121696 -9.0691,1.13171 -15.1126,4.753338 -7.8222,4.687377 -7.5695,9.373327 -14.0411,32.463858 -2.3979,8.555313 -2.4187,14.863436 -2.8844,15.437072 -0.4655,0.57363 -9.6246,3.101387 -13.7313,5.144243 -8.1464,4.052314 -8.9066,11.479378 -12.7253,19.733251 -9.6227,10.63556 -2.8411,7.45817 -6.1438,19.58199 l -12.7983,-6.06118 c -3.2077,-3.33367 -6.1967,-6.75752 -6.642,-7.60857 -2.5229,-4.82021 -4.1515,-38.296128 -2.6318,-54.095454 1.5361,-15.969868 5.9843,-30.665143 12.9619,-42.822091 3.7549,-6.5421406 15.8674,-18.7153095 21.7401,-21.8488594 5.9944,-3.1986286 13.4739,-5.5561806 21.7237,-6.8475656 l 6.4076,-1.002998 4.0563,-6.984743 c 8.5882,-14.787923 18.7563,-24.702213 33.1944,-32.365673 9.6581,-5.126409 16.9831,-7.82676 27.4998,-10.137916 6.7501,-1.483362 10.7899,-1.796847 23.6518,-1.835345 28.0296,-0.08389 41.7604,4.180697 76.5438,23.773315 7.1195,4.010209 18.1349,9.934478 24.4786,13.165042 16.7953,8.553091 23.4879,13.383156 35.4631,25.5936583 23.7562,24.2230947 31.4151,43.5649477 31.3241,79.1062457 -0.028,10.842312 -1.7576,37.442834 -2.4676,37.947444 -4.1084,2.91982 -7.3975,6.21992 -9.435,9.46648 -2.1597,3.44145 -6.2977,8.60807 -6.2977,7.16878 z"
         style="display:inline;opacity:1;fill:#808184;fill-opacity:1;fill-rule:nonzero;stroke:none;stroke-width:87.12387848;stroke-linecap:square;stroke-linejoin:miter;stroke-miterlimit:4;stroke-dasharray:none;stroke-dashoffset:386.19207764;stroke-opacity:1;paint-order:fill markers stroke" />
      <path
         sodipodi:nodetypes="cccccccccccsc"
         inkscape:connector-curvature="0"
         id="path30337"
         d="m 3032.9103,257.84405 c -48.2771,-4.19617 -51.8474,-27.01958 -54.1128,-44.76104 0.033,-4.08288 2.3804,-10.33435 4.5311,-12.07013 1.0054,-0.8114 1.1612,-0.8148 5.0121,-0.10954 2.186,0.40032 7.6058,1.58735 12.0438,2.63784 22.8725,5.41389 35.2501,7.18155 50.2299,7.17342 16.1915,-0.009 28.5286,-1.76688 51.9677,-7.40565 4.8517,-1.1672 10.2312,-2.36414 11.9545,-2.65989 2.9245,-0.50195 3.2048,-0.48033 4.2101,0.32481 2.3264,1.86304 4.4853,8.07572 4.4853,12.90698 -0.9645,7.61413 -1.4759,33.37618 -34.6839,40.28762 -5.942,1.63118 -14.7509,3.07129 -22.6548,3.70368 -6.1675,0.49346 -26.5275,0.47614 -32.983,-0.0281 z"
         style="display:inline;opacity:1;fill:#ffffff;fill-opacity:1;fill-rule:nonzero;stroke:none;stroke-width:87.12388611;stroke-linecap:square;stroke-linejoin:miter;stroke-miterlimit:4;stroke-dasharray:none;stroke-dashoffset:386.19207764;stroke-opacity:1;paint-order:fill markers stroke" />
      <path
         sodipodi:nodetypes="ccccc"
         inkscape:connector-curvature="0"
         id="path30341"
         d="m 3941.7249,319.2595 c 10.7259,-2.44334 19.152,-0.42302 31.6396,-0.42302 0.4472,6.49263 2.3503,26.04141 2.0254,24.60006 -10.6667,1.05945 -25.7111,1.94399 -37.0726,0.98798 -2.8623,-4.92278 -2.6884,-16.60782 3.4076,-25.16502 z"
         style="display:inline;opacity:1;fill:#808080;fill-opacity:1;fill-rule:nonzero;stroke:none;stroke-width:87.12388611;stroke-linecap:square;stroke-linejoin:miter;stroke-miterlimit:4;stroke-dasharray:none;stroke-dashoffset:386.19207764;stroke-opacity:1;paint-order:fill markers stroke" />
      <path
         inkscape:connector-curvature="0"
         id="path30343"
         d="m 3482.4036,305.35816 c -1.3886,-0.54999 -4.1419,-1.8667 -8.5281,-4.07815 -6.312,-3.18257 -10.9037,-4.99956 -13.7761,-5.45145 -2.0442,-0.3216 -3.167,-0.81907 -4.1261,-1.82806 -1.7111,-1.80044 -2.2987,-5.48593 -1.2465,-7.81888 0.6358,-1.40985 2.4902,-2.10819 4.6583,-1.75428 1.7039,0.27816 3.0588,0.77188 5.3468,1.94827 4.8055,2.47081 9.9605,6.75647 16.2053,13.47241 3.8324,4.12165 4.5271,5.16145 3.8932,5.82846 -0.3235,0.34014 -0.9825,0.25368 -2.4268,-0.31832 z"
         style="display:inline;opacity:1;fill:#808080;fill-opacity:1;fill-rule:nonzero;stroke:none;stroke-width:87.12387848;stroke-linecap:square;stroke-linejoin:miter;stroke-miterlimit:4;stroke-dasharray:none;stroke-dashoffset:386.19207764;stroke-opacity:1;paint-order:fill markers stroke" />
      <path
         inkscape:connector-curvature="0"
         id="path30345"
         d="m 3521.8225,303.26546 c -0.8926,-0.94048 1.8005,-4.69513 7.0168,-9.78256 6.4951,-6.33451 9.9065,-8.11896 15.5036,-8.10983 2.0618,0.002 3.1128,0.19132 3.5304,0.63131 0.6074,0.6399 0.4067,4.23979 -0.319,5.72281 -0.8797,1.7976 -2.3321,2.62626 -8.9099,5.08383 -4.7437,1.77235 -8.7288,3.4653 -11.4862,4.87958 -2.358,1.20951 -4.0416,1.87606 -4.7388,1.87606 -0.171,0 -0.4397,-0.13549 -0.5969,-0.3012 z"
         style="display:inline;opacity:1;fill:#808080;fill-opacity:1;fill-rule:nonzero;stroke:none;stroke-width:87.12388611;stroke-linecap:square;stroke-linejoin:miter;stroke-miterlimit:4;stroke-dasharray:none;stroke-dashoffset:386.19207764;stroke-opacity:1;paint-order:fill markers stroke" />
      <path
         sodipodi:nodetypes="ccccccccsccsccccsccssscccccccccccccscccscsscssccccccccscsccscsscsscccccscsscccccccscsccccccscsccscscscscsccccssccsccccscscccsssccscccscscccsccccc"
         inkscape:connector-curvature="0"
         id="path30261"
         d="m 2947.5648,324.78043 8.2938,-17.37906 7.7465,-15.4635 -6.0266,-6.3182 c -7.9646,-8.35011 -8.1683,-9.30562 -5.5157,-25.88296 0.7023,-4.38892 0.4515,-4.86445 -9.5286,-18.06106 -5.6374,-7.4544 -12.7127,-18.08888 -15.7229,-23.6322 l -5.4731,-10.07874 -6.0203,-0.68605 c -25.4242,-2.89722 -42.2059,-17.56493 -48.6468,-42.51887 -1.4955,-5.79393 -1.4897,-7.28193 0.057,-14.77723 2.4484,-11.86449 6.2207,-19.00674 14.8202,-28.05977 l 7.5152,-7.91154 -1.3414,-8.62114 c -0.7778,-4.99907 -1.3209,-18.968539 -1.2927,-33.249851 0.046,-23.143637 0.2246,-25.285307 2.9669,-35.517416 5.8144,-21.694462 16.7871,-38.4909504 31.6312,-48.419289 7.1165,-4.759815 12.2488,-6.883228 27.1286,-11.224136 1.5502,-0.452252 5.2512,-4.080756 8.5373,-8.370207 11.2552,-14.691525 20.9883,-22.924353 35.7944,-30.277006 10.9331,-5.429326 20.2197,-8.2405 33.3856,-10.106249 14.7766,-2.093998 24.841,-2.083202 39.1535,0.042 20.8682,3.098621 24.5099,4.631498 80.0243,33.68388 11.0636,5.789905 22.8854,12.629218 26.2707,15.198473 9.9312,7.537308 23.6206,22.06441126 30.5396,32.4083289 16.9656,25.3638541 20.5558,49.2427031 14.9224,99.2510621 -0.6088,5.40432 -0.5386,5.5624 5.5887,12.58801 11.9555,13.70831 16.4548,27.65271 13.8626,42.96345 -1.8811,11.11009 -5.9035,18.72837 -14.3467,27.17151 -8.98,8.98007 -16.3286,12.64353 -29.8825,14.89734 l -10.3918,1.72802 -4.1716,7.79287 c -5.6473,10.54942 -11.4809,19.14645 -20.4885,30.19412 -6.1628,7.55846 -7.4399,9.77725 -6.9308,12.04071 3.8164,16.96654 3.2387,20.29064 -4.8399,27.8472 -3.0088,2.81439 -5.4705,5.62619 -5.4705,6.24846 0,0.62226 2.8103,6.54493 6.2453,13.16149 5.1857,9.98921 5.975,15.2185 4.652,16.09077 -66.154,31.98549 -148.2962,29.61854 -203.0454,3.24678 z m 78.3087,-13.544 c 0,-1.14095 -0.7985,-1.60055 -2.3771,-1.36826 -3.5044,0.51565 -3.8797,3.08631 -0.4506,3.08631 1.8395,0 2.8277,-0.60043 2.8277,-1.71805 z m 54.4623,0.34979 c -0.6932,-2.10514 -5.2048,-2.40833 -5.2048,-0.34979 0,1.11762 0.9882,1.71805 2.8277,1.71805 1.7728,0 2.6596,-0.51047 2.3771,-1.36826 z m -14.4105,-25.9998 c 19.8788,-5.0327 46.1044,-16.41597 61.6874,-26.77556 17.4713,-11.6149 35.7823,-34.0725 44.8754,-55.0377 7.9517,-18.3337 18.667,-55.04588 18.6701,-63.96696 0,-2.97559 -0.534,-4.20096 -2.0434,-4.68004 -4.3471,-1.37971 -5.7827,-4.65711 -7.7749,-17.74942 -1.0834,-7.12002 -2.8194,-15.04076 -3.8578,-17.601648 -2.3281,-5.741657 -7.3234,-10.121072 -11.5444,-10.121072 -1.9452,0 -4.5866,-1.251041 -6.8648,-3.251276 -3.536,-3.10472 -3.7347,-3.684513 -4.4064,-12.861669 -0.7542,-10.304375 -1.9466,-15.9 -4.8076,-22.560286 -1.5973,-3.718621 -2.1184,-4.106638 -4.6053,-3.429643 -1.5422,0.419848 -6.2389,0.99685 -10.437,1.282226 -5.2555,0.357259 -8.5976,1.205789 -10.7302,2.72432 -3.7065,2.639324 -8.2638,2.244257 -22.9429,-1.988852 -8.3157,-2.39805 -10.0474,-2.582141 -13.2832,-1.412069 -3.1606,1.142883 -6.418,0.90359 -21.6341,-1.589286 -9.8522,-1.614123 -28.011,-3.897042 -40.3527,-5.073156 -12.3417,-1.176126 -29.4669,-3.225707 -38.056,-4.55464 l -15.6166,-2.416244 -2.9918,2.21257 c -4.5865,3.391879 -7.3316,9.344172 -12.2894,26.647363 -2.5012,8.729515 -5.5223,17.545122 -6.7136,19.590237 -1.1913,2.045104 -1.7542,4.130128 -1.2509,4.633375 0.5032,0.503247 3.842,0.43861 7.4196,-0.143657 10.9777,-1.786666 34.8766,1.792468 44.6197,6.68231 4.8977,2.458079 9.5545,6.230447 9.5545,7.739887 0,1.45986 -3.6091,1.07484 -18.366,-1.959229 -14.7773,-3.038265 -34.3085,-3.922645 -50.0472,-2.26616 l -7.6622,0.806454 4.2872,-3.859015 c 4.6554,-4.190518 4.6318,-5.643668 -0.073,-4.462912 -7.425,1.863574 -12.2002,11.136932 -15.1647,29.449502 -1.8469,11.40961 -2.9246,13.57891 -7.7462,15.59353 -4.9035,2.0488 -4.8687,3.64575 0.5393,24.76477 7.3201,28.58628 17.4305,53.06774 28.5714,69.18366 6.9397,10.03867 22.5669,25.26954 32.5033,31.67908 14.6818,9.47051 30.4881,16.57072 51.7662,23.25347 13.9509,4.38151 23.8434,4.78985 36.768,1.51774 z m -149.7717,-91.67079 c -0.279,-1.6556 -2.2546,-8.92107 -4.3901,-16.1455 -4.7047,-15.91526 -9.2878,-36.04623 -10.6175,-46.63583 -1.0854,-8.64449 -2.0435,-10.29622 -5.3612,-9.24322 -3.2315,1.02565 -12.9696,12.05238 -16.1007,18.23132 -2.331,4.60001 -2.6745,6.74092 -2.6535,16.5401 0.026,12.44071 1.4888,17.17453 7.7453,25.07399 6.3629,8.03381 19.1538,15.03519 27.656,15.13812 4.0159,0.0486 4.2035,-0.10059 3.7217,-2.95898 z m 288.5229,-1.20498 c 8.3326,-4.10212 15.1112,-11.06797 19.1458,-19.67454 2.5128,-5.36023 2.9122,-7.63804 2.9122,-16.61087 0,-9.14139 -0.3659,-11.1438 -3.0257,-16.56001 -3.467,-7.0597 -13.0555,-17.37291 -16.1521,-17.37291 -3.0164,0 -3.7165,1.94642 -7.481,20.79759 -1.8634,9.33156 -5.6152,24.60137 -8.3372,33.93292 -2.722,9.33155 -4.951,17.64484 -4.9532,18.47398 -0.01,2.53812 10.0945,0.85213 17.8912,-2.98616 z m -7.9831,-73.77581 c 1.3194,-1.95662 4.0699,-5.04166 6.1121,-6.85567 3.6586,-3.24967 3.731,-3.4912 4.9197,-16.419156 1.536,-16.702775 0.6488,-44.87087 -1.6887,-53.621533 -5.4674,-20.467348 -21.918,-42.79542448 -43.3367,-58.820014 -3.7452,-2.802009 -42.8121,-23.638121 -63.4874,-33.860664 -41.7704,-20.652627 -93.7023,-15.52294 -123.0349,12.153052 -5.4409,5.133578 -15.98,19.227683 -17.2686,23.093569 -0.2062,0.618569 -4.8844,2.048566 -10.396,3.177775 -16.1354,3.3057967 -25.9054,9.2652875 -35.1126,21.4179793 -6.3648,8.4009107 -10.7737,18.0846807 -14.1977,31.1838217 -2.4426,9.344489 -2.7245,12.598612 -2.751,31.756259 -0.016,11.739693 0.5027,24.438024 1.1532,28.218501 1.0546,6.12892 1.8706,7.63195 7.5323,13.87314 3.4923,3.84975 6.7539,6.60808 7.248,6.12961 0.4941,-0.47846 1.8172,-5.07485 2.9403,-10.2142 3.6022,-16.483766 8.5759,-23.532519 20.9535,-29.695294 l 6.8006,-3.386012 4.5405,-15.871846 c 6.7003,-23.421876 9.328,-28.362113 17.9003,-33.653653 4.7101,-2.907468 8.2104,-3.049803 18.9601,-0.770986 4.4041,0.933622 21.7996,3.14658 38.6566,4.917684 16.857,1.771106 35.9903,3.998752 42.5184,4.95033 6.5281,0.951588 12.1497,1.449789 12.4923,1.107121 0.3427,-0.342657 -0.6738,-2.445764 -2.2589,-4.673556 -1.5851,-2.227793 -2.707,-4.225595 -2.493,-4.439561 0.214,-0.213965 6.2334,2.042988 13.3765,5.01545 15.775,6.564502 27.649,10.513932 28.6376,9.525258 0.4033,-0.403243 -0.4064,-2.713232 -1.7992,-5.133305 -1.3928,-2.420073 -2.3504,-4.582132 -2.1279,-4.80458 0.2224,-0.222446 4.3255,0.805408 9.1179,2.28412 4.7924,1.478709 10.1039,2.688636 11.8033,2.688713 l 3.0899,1.53e-4 -3.3635,-4.080536 c -4.0312,-4.890479 -4.1571,-5.770955 -0.8257,-5.770955 11.7171,0 24.8476,10.406929 29.0135,22.99547 1.2934,3.90847 2.8763,11.046904 3.5175,15.863188 1.6558,12.436478 1.6534,12.43198 7.3221,13.859362 9.8199,2.472681 16.3784,12.568127 18.8904,29.077765 2.1424,14.0803 2.6345,14.73071 6.6452,8.7832 z"
         style="display:inline;opacity:1;fill:#464646;fill-opacity:1;fill-rule:nonzero;stroke:none;stroke-width:87.12388611;stroke-linecap:square;stroke-linejoin:miter;stroke-miterlimit:4;stroke-dasharray:none;stroke-dashoffset:386.19207764;stroke-opacity:1;paint-order:fill markers stroke" />
      <path
         sodipodi:nodetypes="cccsccscccccccsscccccsscccscccccccsccscsccssccscsscccccsccsssccccccsssccscccccccccccsc"
         inkscape:connector-curvature="0"
         id="path30263"
         d="m 3397.6833,324.65139 c -9.3286,-4.2993 -7.5953,-5.81148 -0.088,-20.46305 5.7986,-11.31638 12.6321,-18.50071 22.5589,-23.71706 4.0925,-2.15056 7.4409,-4.22537 7.4409,-4.61071 0,-0.38532 -4.8026,-3.89022 -10.6724,-7.78866 -17.9259,-11.90541 -34.0466,-29.434 -44.543,-48.43294 -3.914,-7.08469 -4.251,-7.38862 -8.1911,-7.38862 -6.6892,0 -20.8475,-4.13036 -26.4234,-7.70843 -10.3327,-6.63045 -18.9366,-17.99982 -22.2741,-29.43333 -2.1633,-7.41119 -2.177,-13.93604 -0.048,-22.96697 2.7683,-11.7444 8.0028,-19.63366 19.0578,-28.72348 l 4.8647,-3.99992 0.9023,-17.89228 c 2.311,-45.823519 16.2495,-81.865891 41.3768,-106.9932436 26.172,-26.1719454 64.4491,-39.5271254 113.2405,-39.5104794 25.8619,0.0088 54.2275,4.150803 76.1041,11.112812 10.6232,3.380722 32.4118,14.425195 40.579,20.56921 14.9177,11.2222096 30.1045,29.943019 37.7969,46.592306 9.0317,19.547936 12.3518,36.001975 13.2493,65.661661 l 0.6293,20.797594 7.7823,7.70555 c 9.3453,9.25311 13.6356,17.16546 14.9286,27.53176 3.7669,30.20029 -14.9646,53.28109 -46.3497,57.11181 -5.3462,0.65253 -5.8662,1.00144 -8.9594,6.01216 -10.4693,16.95908 -15.2206,23.19898 -25.6452,33.68004 -7.0755,7.11385 -15.2929,14.0518 -21.1494,17.85639 -5.2678,3.4222 -9.5778,6.59313 -9.5778,7.04654 0,0.45341 3.0558,2.26952 6.7908,4.03582 9.4735,4.48009 16.9776,12.32894 22.5585,23.59489 2.521,5.08902 5.4046,12.5123 5.4046,13.15153 -59.2005,36.64537 -151.1996,34.45832 -211.3441,7.1691 z m 117.0526,-20.62257 c 6.2122,-6.11319 11.0375,-11.53151 10.7228,-12.04071 -0.7701,-1.24609 -46.1237,-1.19065 -46.895,0.0574 -0.6819,1.10321 21.9017,23.09823 23.7163,23.09823 0.6385,0 6.2436,-5.0017 12.4559,-11.11488 z m -32.41,-1.90254 c 0,-0.53718 -2.9349,-3.69396 -6.5221,-7.01505 -9.2753,-8.58728 -17.5593,-10.87516 -17.5593,-4.84953 0,3.13494 1.8939,5.16515 4.871,5.22147 1.2342,0.0233 5.692,1.70503 9.9062,3.73706 8.4355,4.06745 9.3042,4.33877 9.3042,2.90605 z m 46.3193,-2.50802 c 1.315,-0.71252 5.3463,-2.31339 8.9585,-3.55748 5.6808,-1.95652 6.6145,-2.66847 6.914,-5.27216 0.3127,-2.71684 0.012,-3.01017 -3.0821,-3.01017 -4.4683,0 -7.1955,1.4679 -12.8624,6.92341 -6.0579,5.83187 -6.023,8.21892 0.072,4.9164 z m 2.9216,-19.01674 c 19.8323,-3.76212 42.6564,-14.17027 58.0064,-26.45178 15.1757,-12.14211 30.741,-34.38789 36.2097,-51.75088 3.6282,-11.5193 6.58,-31.13683 7.276,-48.35567 0.5432,-13.43681 0.3616,-16.67102 -1.1096,-19.77149 -0.9675,-2.03877 -2.6989,-9.8532 -3.8476,-17.36541 -2.6984,-17.646672 -3.8617,-19.868939 -11.9441,-22.817402 -12.4833,-4.553907 -11.9271,-3.664667 -14.9776,-23.944957 -1.6876,-11.219201 -4.5574,-19.650619 -7.9732,-23.425049 -2.5279,-2.793278 -13.8749,-6.040732 -28.08,-8.03636 -16.8672,-2.369614 -68.3427,-3.284882 -92.6524,-1.647419 -25.9559,1.748357 -59.2006,5.223566 -62.701,6.554409 -5.4665,2.078348 -6.5089,5.366228 -7.5966,23.960072 -0.6586,11.259827 -1.5286,17.990092 -2.5249,19.533668 -0.836,1.295241 -3.8802,3.230512 -6.7649,4.300602 -11.7893,4.37334 -15.3271,9.880986 -19.0437,29.647336 -1.2265,6.52296 -2.9963,13.04657 -3.9327,14.49691 -1.4245,2.206 -1.6078,5.42622 -1.1217,19.70298 0.8209,24.11278 5.2852,46.35539 11.9935,59.7558 13.0906,26.14965 40.8895,49.31229 71.6955,59.73825 23.9952,8.12093 55.0809,10.43062 79.0889,5.87639 z M 3363.8736,201.0306 c 0.7846,-0.95146 0.4888,-5.20291 -0.971,-13.95628 -1.1545,-6.92341 -2.6194,-20.22292 -3.2552,-29.55447 -1.0213,-14.9895 -1.5236,-17.76362 -4.3105,-23.80777 -3.7159,-8.05861 -5.5663,-8.58387 -13.1955,-3.74561 -20.985,13.30835 -24.5348,41.33232 -7.5672,59.74004 7.9044,8.57525 25.8476,15.5102 29.2994,11.32409 z m 291.0557,-3.09593 c 7.7258,-3.726 15.175,-11.30588 18.9778,-19.3107 3.1153,-6.55776 4.1266,-19.02308 2.1236,-26.177 -2.0494,-7.31995 -9.0533,-17.20625 -14.9626,-21.12037 -7.2265,-4.78662 -9.1646,-4.45183 -13.8102,2.38548 -3.8714,5.69772 -3.9148,5.89132 -5.1009,22.71316 -1.2206,17.31162 -2.3979,26.79639 -4.5738,36.84914 -1.7813,8.22936 -0.9692,9.53238 5.3894,8.64728 2.8527,-0.39709 8.2332,-2.19123 11.9567,-3.98699 z"
         style="display:inline;opacity:1;fill:#464646;fill-opacity:1;fill-rule:nonzero;stroke:none;stroke-width:87.12388611;stroke-linecap:square;stroke-linejoin:miter;stroke-miterlimit:4;stroke-dasharray:none;stroke-dashoffset:386.19207764;stroke-opacity:1;paint-order:fill markers stroke" />
      <path
         sodipodi:nodetypes="ccccccscccccccccccccccccsscscccssscccsccccscscccccccccsccccscccccscccscccsccccsccccscscccccccssccccsccccccsccccscscccscsccccccsssccsccccc"
         inkscape:connector-curvature="0"
         id="path30265"
         d="m 3852.6348,326.35793 4.1444,-12.58525 c 1.8278,-4.96527 4.8194,-11.36373 6.6478,-14.21877 l 3.3245,-5.191 -3.3926,-5.12181 c -4.519,-6.82254 -4.4183,-10.75044 0.4386,-17.11143 2.1072,-2.75961 3.8312,-5.40721 3.8312,-5.88354 0,-0.47633 -4.3912,-5.30849 -9.7583,-10.73811 -10.9514,-11.07922 -19.6361,-22.73894 -27.0022,-36.25223 -4.6146,-8.46553 -5.2621,-9.16543 -9.0081,-9.73637 -17.5336,-2.67233 -27.5441,-7.28351 -36.7388,-16.92326 -6.8467,-7.17801 -10.6848,-14.47895 -13.4037,-25.49656 -1.6507,-6.68895 -1.6431,-7.77677 0.1096,-15.6545 1.0359,-4.65631 3.7381,-11.98746 6.0048,-16.29143 l 4.1214,-7.82541 -1.9177,-7.07007 c -1.0547,-3.88852 -3.651,-13.26536 -5.7695,-20.837391 -5.2246,-18.673107 -6.7207,-31.696613 -5.91,-51.446138 0.607,-14.786442 0.4957,-16.232674 -1.3803,-17.930403 -1.1223,-1.015667 -2.6471,-3.310976 -3.3884,-5.100686 -1.9508,-4.709636 -3.3047,-2.251503 25.5591,-46.405823 4.3338,-6.629732 9.0673,-13.63092 10.5189,-15.558196 l 2.6391,-3.504138 -4.5547,-4.941286 c -2.5051,-2.717708 -4.5547,-5.871014 -4.5547,-7.007346 0,-8.438851 19.1476,-16.715069 42.3876,-18.321251 l 10.701,-0.739577 8.8531,-13.816088 c 4.8692,-7.598848 10.4457,-16.831547 12.3921,-20.517117 5.2094,-9.864 10.6236,-11.61746 18.4241,-5.96686 2.4326,1.76218 6.5516,6.44164 9.1532,10.3988 2.6017,3.95716 5.4058,7.194835 6.2314,7.194835 0.8256,0 5.2774,-0.955546 9.893,-2.123435 4.6156,-1.167888 15.288,-3.422631 23.7165,-5.01054 10.6232,-2.00139 18.011,-4.09884 24.0814,-6.83693 14.8659,-6.70533 20.451,-4.73355 21.7482,7.67811 0.3877,3.709345 1.1168,7.156088 1.6201,7.659434 0.5034,0.503346 5.7955,1.414847 11.7603,2.025558 13.49,1.381189 34.6498,5.835661 44.7779,9.426487 4.2143,1.494109 20.2502,8.832843 35.6355,16.308298 21.1491,10.276078 29.961,13.991529 36.1221,15.230592 4.4819,0.90137 9.2193,1.879867 10.5275,2.174437 4.5097,1.01547 9.1149,5.913358 9.1149,9.694154 0,3.671468 -1.3742,6.150453 -7.3202,13.204952 -1.9943,2.365998 -3.6259,4.742754 -3.6259,5.281679 0,0.538925 1.9701,4.29603 4.378,8.349121 5.5559,9.3519298 9.8868,21.229741 13.8164,37.892498 2.9298,12.422883 3.0979,14.500825 3.0993,38.311353 0,22.785283 -0.282,26.692144 -2.9838,41.141677 -3.4583,18.49484 -3.725,28.31534 -1.1137,41.00162 1.5562,7.56011 1.6704,10.44452 0.6778,17.11071 -1.9684,13.21855 -5.1261,19.90189 -13.3533,28.26288 -10.5577,10.72948 -17.5006,13.87324 -37.4007,16.93522 -3.5097,0.54002 -4.2124,1.28821 -7.4932,7.97843 -6.0392,12.31508 -15.237,25.16407 -26.1591,36.54337 l -10.3746,10.80887 4.9337,5.27449 c 2.7135,2.90098 5.2626,6.31112 5.6648,7.5781 0.4021,1.26697 -0.039,5.27493 -0.9799,8.90657 -2.3063,8.90014 -1.079,13.62534 4.4312,22.18735 l 6.4012,9.9466 c -31.4399,12.49046 -58.1759,22.60901 -88.8536,25.75201 l -1.3783,-8.08709 c -0.01,-2.94281 -0.3052,-7.81343 -0.6666,-10.8236 l -0.6571,-5.47306 h -15.2518 c -17.4929,0 -15.6706,-1.39189 -16.8392,12.86167 l -0.9692,11.49341 c -28.6199,-0.68972 -62.607,-8.32894 -85.6825,-18.06659 z m 115.6944,-12.71569 c 4.1019,-1.3313 5.5349,-4.11541 6.9819,-13.56483 l 0.7148,-4.66748 -4.6675,0.83634 c -2.5671,0.46 -10.9482,0.83636 -18.6247,0.83636 h -13.9572 l 9e-4,6.76313 c 0,7.83884 1.3446,9.7897 7.4247,10.78053 2.2383,0.36475 4.8085,0.83376 5.7115,1.04224 2.4652,0.5691 12.073,-0.61687 16.4156,-2.02629 z m 5.5605,-27.97657 c 52.5606,-14.77549 82.0272,-38.76052 100.6168,-81.89945 9.7628,-22.65534 12.2947,-34.13299 10.2535,-46.48027 -0.5601,-3.38773 -1.2778,-4.26495 -4.3075,-5.26485 -3.1859,-1.05144 -4.6018,-0.77567 -11.4509,2.23042 -4.2985,1.88662 -8.5119,3.16296 -9.3631,2.83632 -0.9569,-0.3672 -1.5477,-2.17659 -1.5477,-4.74027 0,-5.01886 -1.5115,-10.59682 -3.8306,-14.13622 -1.3533,-2.06546 -2.1388,-2.39508 -3.7072,-1.5557 -1.6377,0.8765 -2.1062,2.96285 -2.6462,11.78558 -0.3609,5.89629 -1.2494,12.54862 -1.9744,14.78295 -4.2203,13.006 -19.3842,20.37806 -31.1839,15.16028 -6.7442,-2.98224 -10.8746,-6.87023 -14.1804,-13.34801 -2.4249,-4.75189 -3.1254,-5.26275 -11.1176,-8.10805 -18.3296,-6.52548 -41.248,-15.31051 -62.7265,-24.04417 -22.726,-9.2409 -50.3306,-19.14879 -53.3509,-19.14879 -0.9064,0 -3.5562,1.72401 -5.8886,3.83114 -4.59,4.14677 -6.9332,4.56119 -14.7131,2.60219 l -4.8805,-1.22894 -4.4541,5.06008 c -2.8611,3.25037 -5.3515,5.06007 -6.9635,5.06007 -1.3802,0 -3.055,0.65729 -3.7217,1.46065 -0.6667,0.80335 -1.981,7.32525 -2.9206,14.49312 -1.217,9.28328 -2.517,14.6294 -4.5192,18.58347 l -2.8107,5.55099 5.0973,15.25705 c 9.3556,28.00308 19.6513,46.58272 33.645,60.71583 17.0238,17.1935 34.7006,27.3595 65.5432,37.69409 22.342,7.48626 29.1473,7.89808 47.1031,2.85049 z m -153.7169,-88.21394 c 1.1317,-2.94912 -6.4168,-24.74981 -10.3568,-29.91156 -2.0043,-2.62569 -5.3044,-8.41727 -7.3336,-12.8702 -2.0293,-4.45292 -4.3523,-8.09623 -5.1624,-8.09623 -0.81,0 -3.405,-0.98514 -5.7667,-2.18922 -2.3617,-1.20407 -4.9097,-2.18922 -5.6621,-2.18922 -0.7525,0 -2.126,2.55229 -3.0524,5.67173 -4.7184,15.88851 0.8112,32.48794 14.1862,42.58619 9.2975,7.01964 21.7007,10.76963 23.1478,6.99851 z m 283.2801,-1.69049 c 8.0585,-3.01507 16.1124,-10.47508 20.2514,-18.75796 3.0159,-6.0353 3.347,-7.70903 3.347,-16.92174 0,-5.62319 -0.3695,-10.24542 -0.821,-10.27164 -0.4515,-0.0262 -2.9097,-0.45178 -5.4626,-0.94572 -5.5538,-1.07454 -5.4992,-1.12857 -10.098,9.98621 -4.0987,9.90629 -6.4769,13.19448 -12.1184,16.75584 -4.4095,2.78358 -7.9316,10.0032 -9.4195,19.30822 l -0.7249,4.53364 4.5336,-0.72496 c 2.4935,-0.39873 7.2241,-1.73158 10.5124,-2.96189 z m -32.2268,-48.04034 c 0,-1.5515 -4.2501,-4.63945 -5.404,-3.9263 -1.7593,1.08732 -1.3953,3.63534 0.6858,4.79998 1.9102,1.06895 4.7182,0.54897 4.7182,-0.87368 z m -60.4773,-24.77264 c -1.0431,-1.04312 -3.1344,0.64648 -2.357,1.90429 0.462,0.74762 1.0743,0.72874 1.8604,-0.0573 0.6445,-0.64447 0.8679,-1.47557 0.4966,-1.84691 z"
         style="display:inline;opacity:1;fill:#464646;fill-opacity:1;fill-rule:nonzero;stroke:none;stroke-width:87.12388611;stroke-linecap:square;stroke-linejoin:miter;stroke-miterlimit:4;stroke-dasharray:none;stroke-dashoffset:386.19207764;stroke-opacity:1;paint-order:fill markers stroke" />
      <path
         inkscape:connector-curvature="0"
         id="path30267"
         d="m 3880.949,179.26607 c -6.9568,-1.63257 -14.7696,-9.55919 -17.0445,-17.2928 -3.305,-11.23556 -1.9291,-22.14379 3.695,-29.29374 2.8395,-3.60973 2.7991,-4.71416 -0.1721,-4.71416 -5.6439,0 -15.0908,13.74088 -15.1382,22.0192 -0.01,1.43524 -0.3244,3.76542 -0.7026,5.17816 -0.5649,2.10969 -1.2173,2.46273 -3.6514,1.9759 -4.0704,-0.81408 -11.0889,-5.08516 -10.3421,-6.2936 0.3357,-0.5431 1.8398,-0.98745 3.3425,-0.98745 2.2531,0 3.1905,-1.03646 5.3467,-5.91194 7.7574,-17.54098 25.8105,-25.79296 46.6503,-21.32362 4.5173,0.96878 6.796,2.31146 10.9177,6.4332 10.7109,10.71094 11.707,28.65347 2.2789,41.05301 -6.4783,8.52008 -14.8788,11.57531 -25.1802,9.15784 z"
         style="display:inline;opacity:1;fill:#464646;fill-opacity:1;fill-rule:nonzero;stroke:none;stroke-width:87.12388611;stroke-linecap:square;stroke-linejoin:miter;stroke-miterlimit:4;stroke-dasharray:none;stroke-dashoffset:386.19207764;stroke-opacity:1;paint-order:fill markers stroke" />
      <path
         inkscape:connector-curvature="0"
         id="path30335"
         d="m 3943.8997,258.14277 c -4.4335,-3.00277 -10.1644,-7.94215 -13.6874,-11.79691 -7.9427,-8.69093 -16.5176,-20.21057 -15.3401,-20.60798 0.512,-0.17286 5.4169,1.70148 10.8994,4.1652 16.3601,7.35164 31.3603,11.92803 39.2012,11.95981 6.1253,0.0248 10.1679,0.9447 10.1679,2.31362 0,1.87267 -4.504,8.10625 -8.495,11.75718 -3.6291,3.31969 -11.1224,7.35122 -13.6917,7.36631 -0.7851,0.004 -4.8594,-2.31614 -9.0543,-5.15723 z"
         style="display:inline;opacity:1;fill:#ffffff;fill-opacity:1;fill-rule:nonzero;stroke:none;stroke-width:87.12387848;stroke-linecap:square;stroke-linejoin:miter;stroke-miterlimit:4;stroke-dasharray:none;stroke-dashoffset:386.19207764;stroke-opacity:1;paint-order:fill markers stroke" />
      <path
         inkscape:connector-curvature="0"
         id="path30269"
         d="m 3945.0565,265.80362 c -12.1068,-6.39075 -39.7735,-40.14551 -41.9905,-51.23067 -1.0067,-5.03347 1.8316,-4.77207 10.4253,0.96015 19.4597,12.98027 37.8596,20.01989 52.6523,20.14431 5.1173,0.043 11.721,-0.36221 14.6748,-0.90056 l 5.3707,-0.97882 -0.7406,3.7032 c -1.7984,8.99186 -15.6657,26.63938 -23.1771,29.49523 -4.5746,1.73927 -12.7308,1.17411 -17.2149,-1.19284 z m 14.2809,-4.8986 c 6.7364,-2.80964 16.7647,-14.08113 15.0281,-16.89101 -0.3789,-0.61302 -3.8064,-1.11458 -7.6168,-1.11458 -8.9905,0 -22.8414,-4.03734 -37.383,-10.89658 -6.7421,-3.18023 -11.385,-4.82636 -11.385,-4.03654 0,2.13431 13.7051,18.66868 20.4774,24.70472 5.5047,4.90627 13.5724,9.92812 15.9536,9.93052 0.4708,4.8e-4 2.6874,-0.76296 4.9257,-1.69653 z"
         style="display:inline;opacity:1;fill:#464646;fill-opacity:1;fill-rule:nonzero;stroke:none;stroke-width:87.12388611;stroke-linecap:square;stroke-linejoin:miter;stroke-miterlimit:4;stroke-dasharray:none;stroke-dashoffset:386.19207764;stroke-opacity:1;paint-order:fill markers stroke" />
      <path
         inkscape:connector-curvature="0"
         id="path30333"
         d="m 3455.287,234.61312 c -7.2848,-0.71732 -9.8635,-1.61745 -12.5525,-4.38162 -2.7521,-2.82892 -2.8463,-4.12263 -0.3077,-4.23556 2.1157,-0.0941 32.069,7.52168 32.7975,8.33897 0.6433,0.72179 -13.4367,0.91824 -19.9367,0.27818 z"
         style="display:inline;opacity:1;fill:#ffffff;fill-opacity:1;fill-rule:nonzero;stroke:none;stroke-width:87.12387085;stroke-linecap:square;stroke-linejoin:miter;stroke-miterlimit:4;stroke-dasharray:none;stroke-dashoffset:386.19207764;stroke-opacity:1;paint-order:fill markers stroke" />
      <path
         inkscape:connector-curvature="0"
         id="path30271"
         d="m 3534.4738,243.20978 c -1.0643,-0.0831 -5.8534,-0.49494 -10.6426,-0.91518 -11.3052,-0.99201 -19.5753,-1.42507 -40.8288,-2.13798 -25.7345,-0.86321 -35.987,-1.70876 -39.4929,-3.25709 -1.7771,-0.7848 -3.9646,-3.38081 -8.2176,-9.75233 -1.509,-2.26066 -3.6691,-5.20356 -4.8003,-6.53979 -3.5527,-4.19674 -4.5722,-5.50826 -4.5722,-5.8818 0,-0.69541 2.338,-2.70148 2.898,-2.48658 0.3075,0.11801 2.5242,1.60103 4.9259,3.29561 12.3153,8.68931 17.5255,10.12016 61.3681,16.85303 22.024,3.38221 32.2891,4.87474 42.5258,6.1832 4.0812,0.52166 7.7819,1.14196 8.2238,1.37844 1.0208,0.54634 1.1064,2.52184 0.1261,2.91035 -0.8103,0.32115 -8.7806,0.56352 -11.5133,0.35012 z m -61.7543,-8.63771 c 0.6892,-0.43619 0,-0.63651 -15.893,-4.59839 -12.3339,-3.07525 -13.4919,-3.2229 -13.4919,-1.7202 0,1.04402 1.6333,3.10294 3.1279,3.94297 1.9158,1.07671 5.9834,1.96896 10.6107,2.32751 5.5521,0.43021 14.9966,0.45925 15.6463,0.0481 z"
         style="display:inline;opacity:1;fill:#464646;fill-opacity:1;fill-rule:nonzero;stroke:none;stroke-width:87.12388611;stroke-linecap:square;stroke-linejoin:miter;stroke-miterlimit:4;stroke-dasharray:none;stroke-dashoffset:386.19207764;stroke-opacity:1;paint-order:fill markers stroke" />
      <path
         inkscape:connector-curvature="0"
         id="path30273"
         d="m 3572.6777,174.17682 c -2.9251,-0.62345 -6.7232,-2.77977 -9.2065,-5.22685 -4.0308,-3.97201 -5.6512,-8.62407 -5.7291,-16.44763 -0.072,-7.18942 0.5435,-8.12727 5.8314,-8.89182 3.347,-0.48393 41.7347,-0.5033 46.2965,-0.0234 4.5591,0.47966 6.0055,0.98527 6.312,2.20639 0.6392,2.54673 -2.6929,4.23689 -9.5321,4.83501 -7.1588,0.62607 -6.5187,0.18647 -7.788,5.34861 -0.5997,2.43918 -1.6257,5.52221 -2.2799,6.85116 -2.5541,5.18816 -6.8672,9.01615 -11.9333,10.59104 -2.9211,0.90808 -9.3545,1.31514 -11.971,0.75745 z"
         style="display:inline;opacity:1;fill:#464646;fill-opacity:1;fill-rule:nonzero;stroke:none;stroke-width:87.12388611;stroke-linecap:square;stroke-linejoin:miter;stroke-miterlimit:4;stroke-dasharray:none;stroke-dashoffset:386.19207764;stroke-opacity:1;paint-order:fill markers stroke" />
      <path
         inkscape:connector-curvature="0"
         id="path30275"
         d="m 3414.6963,174.72447 c -3.7875,-0.99668 -6.9634,-2.8731 -10.1465,-5.99498 -3.5775,-3.50873 -5.0615,-6.36278 -5.7207,-11.00261 -0.6396,-4.50182 -1.0851,-5.93071 -2.0016,-6.42125 -0.448,-0.23972 -3.272,-0.56851 -6.2757,-0.73064 -3.0037,-0.16213 -5.8966,-0.47142 -6.4287,-0.68731 -1.6498,-0.66935 -2.3863,-1.79571 -2.2509,-3.44267 0.1049,-1.27717 0.3225,-1.58709 1.5279,-2.17649 2.2248,-1.08791 12.2338,-1.5023 33.0377,-1.36783 17.6704,0.11422 18.6517,0.15782 20.1242,0.89408 2.3444,1.17222 2.9448,2.76205 3.1904,8.44843 0.1636,3.7893 0.071,5.188 -0.4644,7.03042 -3.1476,10.82755 -14.6641,18.06328 -24.5917,15.45085 z"
         style="display:inline;opacity:1;fill:#464646;fill-opacity:1;fill-rule:nonzero;stroke:none;stroke-width:87.12388611;stroke-linecap:square;stroke-linejoin:miter;stroke-miterlimit:4;stroke-dasharray:none;stroke-dashoffset:386.19207764;stroke-opacity:1;paint-order:fill markers stroke" />
      <path
         inkscape:connector-curvature="0"
         id="path30277"
         d="m 3458.7535,122.9019 c -0.7787,-0.28638 -4.6971,-2.08416 -8.7076,-3.99508 -12.6864,-6.04476 -20.7077,-7.99561 -36.1236,-8.78558 -7.8365,-0.40157 -14.8766,-1.0201 -15.4773,-1.35981 -0.7758,-0.4388 1.2368,-1.29248 4.644,-1.96984 4.2308,-0.84108 18.4821,-0.65306 24.7703,0.3268 13.5352,2.10914 27.1165,6.23507 31.4805,9.56361 1.976,1.50717 3.3449,3.48786 3.3449,4.83992 0,1.93836 -1.2346,2.37174 -3.9312,1.37998 z"
         style="display:inline;opacity:1;fill:#464646;fill-opacity:1;fill-rule:nonzero;stroke:none;stroke-width:87.12388611;stroke-linecap:square;stroke-linejoin:miter;stroke-miterlimit:4;stroke-dasharray:none;stroke-dashoffset:386.19207764;stroke-opacity:1;paint-order:fill markers stroke" />
      <path
         inkscape:connector-curvature="0"
         id="path30279"
         d="m 3541.1889,122.53814 c -1.7588,-3.86027 5.5853,-8.37905 20.4309,-12.57097 8.9607,-2.53019 17.0285,-3.50797 28.9951,-3.51405 8.3992,-0.004 12.0464,0.37918 13.6935,1.43965 l 0.9481,0.61041 -0.8709,0.32218 c -0.479,0.1772 -3.2567,0.4913 -6.1726,0.69801 -2.916,0.2067 -8.0882,0.57054 -11.4938,0.80854 -7.2737,0.5083 -13.3939,1.48413 -19.4952,3.10838 -5.6009,1.49105 -9.819,3.1649 -17.6001,6.98426 -3.4205,1.67891 -6.6213,3.05256 -7.1131,3.05256 -0.5709,0 -1.0487,-0.33942 -1.3219,-0.93897 z"
         style="display:inline;opacity:1;fill:#464646;fill-opacity:1;fill-rule:nonzero;stroke:none;stroke-width:87.12388611;stroke-linecap:square;stroke-linejoin:miter;stroke-miterlimit:4;stroke-dasharray:none;stroke-dashoffset:386.19207764;stroke-opacity:1;paint-order:fill markers stroke" />
      <path
         inkscape:connector-curvature="0"
         id="path30281"
         d="m 3496.6609,205.93948 c -0.5762,-0.18803 -2.0017,-0.88774 -3.1678,-1.5549 -1.6102,-0.92124 -2.8865,-1.30042 -5.3061,-1.57638 -4.0493,-0.46184 -6.257,-1.21374 -8.5911,-2.92601 -6.1067,-4.47973 -6.5765,-12.94876 -0.9838,-17.7359 4.2014,-3.59622 7.168,-1.056 4.0906,3.50268 -0.697,1.03243 -1.6766,2.42829 -2.1769,3.10191 -1.1885,1.60006 -1.1494,2.90511 0.1375,4.59232 1.7853,2.34071 3.6729,3.3178 7.164,3.70839 3.0089,0.33663 4.1212,0.68033 9.1072,2.81407 3.28,1.40365 4.8039,1.29423 10.2268,-0.73432 2.5677,-0.96052 5.8883,-2.00297 7.3791,-2.31657 5.1734,-1.08825 6.9688,-2.45284 6.9688,-5.29652 0,-1.68972 -0.6419,-3.14059 -2.5501,-5.76432 -1.7222,-2.368 -2.2033,-3.68591 -1.6934,-4.6387 0.9808,-1.8326 4.8244,-0.27589 7.2802,2.94856 1.3862,1.82015 2.7707,5.65483 2.7645,7.6571 -0.01,2.84689 -3.3807,7.54474 -6.5554,9.13323 -0.7559,0.37822 -2.2451,0.80174 -3.3093,0.94114 -1.0643,0.13941 -4.4868,1.12926 -7.6055,2.19966 -4.5324,1.55559 -6.3188,1.98033 -8.9011,2.11631 -1.7768,0.0936 -3.702,0.0163 -4.2782,-0.17175 z"
         style="display:inline;opacity:1;fill:#464646;fill-opacity:1;fill-rule:nonzero;stroke:none;stroke-width:87.12388611;stroke-linecap:square;stroke-linejoin:miter;stroke-miterlimit:4;stroke-dasharray:none;stroke-dashoffset:386.19207764;stroke-opacity:1;paint-order:fill markers stroke" />
      <path
         inkscape:connector-curvature="0"
         id="path30283"
         d="m 3949.4033,172.35338 c -1.165,-0.2244 -1.0976,-0.62821 0.3017,-1.80559 1.3988,-1.17704 3.1425,-1.55954 6.0211,-1.32083 3.1786,0.26359 5.7751,2.55863 3.5646,3.15072 -0.9773,0.26177 -8.4981,0.24329 -9.8874,-0.0243 z"
         style="display:inline;opacity:1;fill:#464646;fill-opacity:1;fill-rule:nonzero;stroke:none;stroke-width:87.12388611;stroke-linecap:square;stroke-linejoin:miter;stroke-miterlimit:4;stroke-dasharray:none;stroke-dashoffset:386.19207764;stroke-opacity:1;paint-order:fill markers stroke" />
      <path
         inkscape:connector-curvature="0"
         id="path30285"
         d="m 3935.4963,202.99828 c -3.9562,-1.97896 -6.3276,-6.15648 -5.7767,-10.17603 0.3039,-2.21666 1.4083,-4.13512 2.3805,-4.13512 0.8346,0 1.2776,1.66622 1.3171,4.95351 0.032,2.70052 0.7529,3.73815 4.4724,6.4405 3.8372,2.78792 4.1367,3.63228 1.3514,3.81004 -1.2603,0.0804 -2.2896,-0.165 -3.7447,-0.8929 z"
         style="display:inline;opacity:1;fill:#464646;fill-opacity:1;fill-rule:nonzero;stroke:none;stroke-width:87.12388611;stroke-linecap:square;stroke-linejoin:miter;stroke-miterlimit:4;stroke-dasharray:none;stroke-dashoffset:386.19207764;stroke-opacity:1;paint-order:fill markers stroke" />
      <path
         inkscape:connector-curvature="0"
         id="path30287"
         d="m 3950.4676,202.05013 c -1.3835,-0.4019 -3.9708,-1.35387 -5.7494,-2.11549 -6.0179,-2.57688 -7.0991,-4.12404 -3.1517,-4.50991 1.7171,-0.16785 2.8069,0.16497 4.5051,1.37591 4.4938,3.20445 5.8292,3.79142 8.2302,3.61775 2.7195,-0.19671 5.6809,-1.57812 8.4497,-3.94157 2.4186,-2.06441 4.1945,-2.75499 5.656,-2.19934 0.5628,0.21398 1.0256,0.61104 1.0285,0.88238 0,0.27133 0.1107,0.88675 0.2396,1.36761 0.21,0.7838 -0.1011,1.03144 -3.0067,2.39304 -3.6059,1.6898 -8.8006,3.29787 -11.7508,3.63755 -1.3262,0.15271 -2.7263,-0.007 -4.4505,-0.50793 z"
         style="display:inline;opacity:1;fill:#464646;fill-opacity:1;fill-rule:nonzero;stroke:none;stroke-width:87.12388611;stroke-linecap:square;stroke-linejoin:miter;stroke-miterlimit:4;stroke-dasharray:none;stroke-dashoffset:386.19207764;stroke-opacity:1;paint-order:fill markers stroke" />
      <path
         inkscape:connector-curvature="0"
         id="path30289"
         d="m 3970.6885,203.33045 c -1.0071,-0.4064 -0.4136,-1.81424 1.5893,-3.76968 2.9421,-2.87244 3.3862,-3.70697 3.7636,-7.07252 0.2061,-1.83772 0.57,-3.20976 0.9502,-3.5831 0.5597,-0.54955 0.6844,-0.52183 1.3601,0.30237 3.7032,4.51646 -0.3956,14.48044 -5.9025,14.34868 -0.7023,-0.0168 -1.4946,-0.11839 -1.7607,-0.22575 z"
         style="display:inline;opacity:1;fill:#464646;fill-opacity:1;fill-rule:nonzero;stroke:none;stroke-width:87.12388611;stroke-linecap:square;stroke-linejoin:miter;stroke-miterlimit:4;stroke-dasharray:none;stroke-dashoffset:386.19207764;stroke-opacity:1;paint-order:fill markers stroke" />
      <path
         inkscape:connector-curvature="0"
         id="path30291"
         d="m 3053.2727,199.28491 c -1.2476,-1.28167 -0.1173,-3.37775 2.9318,-5.43722 6.8116,-4.60071 9.0041,-8.56057 7.6552,-13.82579 -0.5973,-2.33146 -1.8464,-4.95215 -5.8229,-12.21648 -1.1602,-2.11947 -2.4021,-4.93499 -2.7599,-6.25672 -1.1575,-4.27615 0.041,-7.82637 2.4522,-7.26269 1.6202,0.3788 1.9476,0.88438 2.6039,4.02138 0.7222,3.45177 2.0828,6.47658 4.7365,10.53019 2.188,3.34222 4.1337,7.72412 4.7914,10.79079 1.1006,5.13211 -0.8958,10.55642 -5.4305,14.75486 -4.2456,3.93076 -9.7494,6.34862 -11.1577,4.90168 z"
         style="display:inline;opacity:1;fill:#464646;fill-opacity:1;fill-rule:nonzero;stroke:none;stroke-width:87.12388611;stroke-linecap:square;stroke-linejoin:miter;stroke-miterlimit:4;stroke-dasharray:none;stroke-dashoffset:386.19207764;stroke-opacity:1;paint-order:fill markers stroke" />
      <path
         inkscape:connector-curvature="0"
         id="path30293"
         d="m 2976.6894,176.91161 c -9.3287,-2.51618 -14.9596,-8.74616 -17.823,-19.71922 -0.7911,-3.03167 -0.9736,-4.65625 -0.9837,-8.75358 -0.021,-8.37691 1.9415,-14.54268 6.1165,-19.22166 1.1555,-1.29507 2.101,-2.70364 2.101,-3.13018 0,-0.69255 -0.1902,-0.75407 -1.7779,-0.57511 -3.7888,0.42705 -10.5597,6.44211 -13.1461,11.67853 -1.8696,3.7852 -2.4799,6.29937 -2.7306,11.24842 -0.2616,5.16521 -0.6691,6.69446 -1.8639,6.99433 -2.07,0.51954 -11.2116,-3.56495 -13.6312,-6.09044 -1.4231,-1.48539 -0.9544,-1.84102 2.9447,-2.23409 1.7834,-0.17979 3.4203,-0.55484 3.7107,-0.85025 0.2859,-0.29072 1.1324,-1.98688 1.8813,-3.76925 3.8587,-9.18434 9.3513,-15.31697 17.3624,-19.38545 14.1372,-7.17973 31.3558,-6.09418 41.2988,2.60369 3.8038,3.3275 7.4205,10.07688 8.5517,15.9589 0.6609,3.43627 0.5785,10.43248 -0.1622,13.78329 -2.2189,10.03682 -8.3388,18.03973 -16.1562,21.12714 -3.0631,1.20974 -11.7607,1.39537 -15.6923,0.33493 z"
         style="display:inline;opacity:1;fill:#464646;fill-opacity:1;fill-rule:nonzero;stroke:none;stroke-width:87.12388611;stroke-linecap:square;stroke-linejoin:miter;stroke-miterlimit:4;stroke-dasharray:none;stroke-dashoffset:386.19207764;stroke-opacity:1;paint-order:fill markers stroke" />
      <path
         inkscape:connector-curvature="0"
         id="path30295"
         d="m 3114.5159,177.22683 c -3.7722,-0.54638 -6.9016,-2.33718 -10.6823,-6.11296 -2.7708,-2.76719 -3.6316,-3.94159 -5.1316,-7.00143 -4.1761,-8.51836 -4.7656,-17.42231 -1.7551,-26.50972 2.1127,-6.37757 6.4117,-12.20304 11.0206,-14.93357 6.1227,-3.62739 18.1094,-5.20168 26.354,-3.46122 8.4875,1.79171 14.9322,5.18209 20.6213,10.84823 4.1033,4.08673 5.6322,6.41604 7.8316,11.93175 0.8206,2.05803 1.855,4.04664 2.2986,4.41913 0.5887,0.4943 1.5007,0.67886 3.3759,0.68318 1.4132,0.003 2.8276,0.16917 3.1432,0.36869 0.9504,0.60096 -1.1294,2.38067 -5.3379,4.56774 -4.4892,2.33298 -7.259,3.31064 -8.4983,2.99961 -1.2935,-0.32465 -2.0217,-2.36314 -2.0377,-5.70426 -0.036,-7.62927 -2.3904,-13.59178 -7.303,-18.49895 -4.055,-4.05058 -9.2785,-6.60302 -9.9471,-4.86066 -0.285,0.74279 0.3274,1.80067 2.3809,4.11283 2.1525,2.42362 3.4782,5.0112 4.5199,8.82237 1.1888,4.34925 1.172,14.3996 -0.031,18.82929 -2.2234,8.18393 -7.3341,15.04395 -13.4065,17.99554 -3.6434,1.77095 -11.1174,2.41659 -17.4151,1.50441 z"
         style="display:inline;opacity:1;fill:#464646;fill-opacity:1;fill-rule:nonzero;stroke:none;stroke-width:87.12388611;stroke-linecap:square;stroke-linejoin:miter;stroke-miterlimit:4;stroke-dasharray:none;stroke-dashoffset:386.19207764;stroke-opacity:1;paint-order:fill markers stroke" />
      <path
         inkscape:connector-curvature="0"
         id="path30297"
         d="m 3092.0876,103.26238 c -0.5292,-0.2962 -0.5335,-0.46035 -0.037,-1.42069 0.9395,-1.81674 6.1861,-6.40515 9.0371,-7.903267 11.0691,-5.816651 38.5342,-9.006527 50.5362,-5.869422 4.7101,1.231112 14.5277,6.732389 15.9856,8.957479 1.0596,1.61705 0.3247,1.840454 -4.4011,1.337992 -8.1788,-0.86961 -24.3269,-1.293757 -32.6799,-0.858375 -9.0537,0.4719 -11.8752,0.888922 -24.1398,3.567933 -9.8226,2.14559 -13.3995,2.69293 -14.3012,2.18835 z"
         style="display:inline;opacity:1;fill:#464646;fill-opacity:1;fill-rule:nonzero;stroke:none;stroke-width:87.12388611;stroke-linecap:square;stroke-linejoin:miter;stroke-miterlimit:4;stroke-dasharray:none;stroke-dashoffset:386.19207764;stroke-opacity:1;paint-order:fill markers stroke" />
      <path
         inkscape:connector-curvature="0"
         id="path30299"
         d="m 3028.9521,262.79819 c -10.4431,-1.08742 -23.6232,-4.53738 -30.3436,-7.94263 -5.8573,-2.96788 -13.67,-9.7371 -18.2555,-15.81724 -2.422,-3.21149 -5.1318,-8.26004 -6.3575,-11.84438 -0.9719,-2.84188 -0.9889,-12.69268 -0.03,-17.01452 1.3479,-6.072 4.752,-11.2417 8.5818,-13.03308 3.3508,-1.56728 4.3572,-1.45138 23.9942,2.76301 21.3665,4.58556 24.8602,4.98963 43.3444,5.01318 18.718,0.0238 26.61,-0.80444 42.7638,-4.4882 19.4801,-4.44228 23.0742,-4.9 26.2908,-3.34821 5.415,2.61235 9.5069,10.93104 9.9752,20.27923 0.4405,8.79365 -2.6798,16.57025 -9.9222,24.72821 -10.914,12.29389 -23.4749,17.86606 -45.4599,20.16659 -6.6779,0.69878 -39.2617,1.09202 -44.582,0.53804 z m 36.2209,-7.36912 c 7.0833,-0.49916 15.2169,-1.65865 20.7047,-2.95155 11.0759,-2.60948 18.4212,-6.70126 25.8324,-14.3904 2.9246,-3.03423 3.3863,-3.69541 3.3863,-4.84919 0,-1.21658 -0.1469,-1.39124 -1.6448,-1.95498 -2.1848,-0.82229 -6.7855,-1.36286 -8.6565,-1.01712 -0.8263,0.15267 -3.1515,1.13485 -5.1672,2.18263 -3.5215,1.83052 -3.7864,1.90422 -6.7725,1.88419 -2.5597,-0.0172 -3.5361,-0.21498 -5.5369,-1.12178 -2.4996,-1.13286 -4.7304,-3.20605 -4.7304,-4.39627 0,-0.37094 0.2711,-1.06148 0.6025,-1.53455 0.9077,-1.29599 2.7045,-1.09706 6.2872,0.6961 l 3.1092,1.55621 4.1919,-2.31226 c 5.3624,-2.95791 6.7405,-3.2621 12.4742,-2.75347 6.9444,0.61604 8.6783,-0.0581 10.5751,-4.11137 1.085,-2.31858 1.158,-2.73381 0.9236,-5.25556 -0.4839,-5.20605 -2.9371,-10.43047 -5.1598,-10.98833 -1.4015,-0.35176 -5.177,0.28586 -15.0725,2.54557 -21.8605,4.99193 -34.0501,6.59922 -50.0769,6.60295 -14.5003,0.003 -26.3738,-1.52401 -46.5087,-5.98276 -13.6338,-3.01913 -17.0107,-3.56968 -18.298,-2.98316 -1.9872,0.90544 -4.8296,7.61582 -4.8296,11.40196 0,2.34376 0.9933,4.58133 3.0748,6.92681 l 1.4809,1.66868 h 6.5465 6.5464 l 4.5574,2.22527 c 2.5065,1.22389 5.0506,2.22526 5.6535,2.22526 0.603,0 2.2003,-0.52231 3.5498,-1.1607 2.8504,-1.34845 4.5637,-1.47659 5.526,-0.4133 2.0039,2.21424 -2.2713,6.39066 -7.3776,7.20719 -1.986,0.31756 -5.2147,-0.49704 -9.2389,-2.3309 -4.1294,-1.88181 -5.7377,-2.20278 -8.6708,-1.73041 -7.1997,1.15947 -7.6043,3.2688 -1.7535,9.14064 3.1014,3.11244 7.6282,6.36491 11.7301,8.42792 7.6752,3.86018 19.1654,6.64453 31.0078,7.51396 6.4522,0.4737 25.2023,0.49303 31.7343,0.0327 z"
         style="display:inline;opacity:1;fill:#464646;fill-opacity:1;fill-rule:nonzero;stroke:none;stroke-width:87.12388611;stroke-linecap:square;stroke-linejoin:miter;stroke-miterlimit:4;stroke-dasharray:none;stroke-dashoffset:386.19207764;stroke-opacity:1;paint-order:fill markers stroke" />
      <path
         inkscape:connector-curvature="0"
         id="path30301"
         d="m 3038.5472,194.99528 c -0.8551,-0.85504 -0.5547,-2.89145 0.5553,-3.76454 1.2185,-0.95849 1.9973,-1.00784 3.1512,-0.19964 1.0946,0.76669 1.1379,2.60282 0.086,3.65458 -0.8667,0.86667 -3.0568,1.04545 -3.7926,0.3096 z"
         style="display:inline;opacity:1;fill:#464646;fill-opacity:1;fill-rule:nonzero;stroke:none;stroke-width:87.12388611;stroke-linecap:square;stroke-linejoin:miter;stroke-miterlimit:4;stroke-dasharray:none;stroke-dashoffset:386.19207764;stroke-opacity:1;paint-order:fill markers stroke" />
      <path
         sodipodi:nodetypes="cccscsscccccscccccccccsccccccccccccccccccscccsccssccsccccccccscccscccsscscscccccsccscscccccccscccscscccscccscccccsc"
         inkscape:connector-curvature="0"
         id="path30319"
         d="m 2541.3261,340.2059 c -49.5891,-13.36857 -86.2516,-30.5632 -118.3414,-60.60306 -3.8866,-29.01291 1.3212,-48.03567 -8.1229,-69.52445 -0.2156,-0.34888 -1.4485,-7.76096 -2.7398,-16.4713 -1.2913,-8.71032 -3.7672,-23.47186 -5.5021,-32.80341 -5.9349,-31.92152 -6.006,-32.74516 -5.8588,-67.86583 0.1061,-25.314161 0.582,-36.164308 1.9686,-44.879013 1.0058,-6.321374 2.5597,-17.158014 3.4532,-24.081422 8.0081,-62.054291 35.2444,-102.190323 82.1929,-121.121489 12.796,-5.159786 18.7561,-8.251706 27.5158,-14.274526 10.8127,-7.43436 25.5875,-14.15218 37.975,-17.26662 9.5575,-2.40291 13.3224,-2.7533 29.6776,-2.76201 15.5835,-0.008 20.9404,0.43989 31.875,2.66689 51.3565,10.45954 76.6362,22.02904 105.9227,48.47663 19.3072,17.435558 33.6459,34.498026 41.3508,49.205646 5.7178,10.914595 9.1195,20.351787 13.5396,37.5617171 3.2512,12.6588259 3.9741,17.8649229 5.0426,36.3158459 2.0184,34.854487 -0.8678,88.696861 -7.3393,136.912821 -3.2756,24.40512 -7.1682,39.7864 -16.0858,63.5618 -6.2467,16.65482 -6.6751,18.40697 -7.2128,29.50322 l -0.8453,17.54355 -9.5341,6.48287 c -24.6772,18.54779 -41.6176,27.33305 -72.424,37.91369 l -19.3017,6.62929 -0.6544,-17.1963 c 0.3927,-7.04984 1.0226,-17.93166 1.3998,-24.18187 0.5624,-9.32042 0.4177,-11.27462 -0.8048,-10.86712 -0.8198,0.27327 -2.4004,3.66305 -3.5124,7.53284 -7.0456,24.5181 -11.803,44.08004 -12.4054,44.7226 -0.3834,0.40892 -1.7637,2.71633 -3.4016,3.1208 l -3.5255,-3.91669 3.2781,-9.68847 c 5.1773,-15.30171 10.0026,-32.97105 9.5863,-35.10287 -0.2723,-1.39427 -2.1212,0.39138 -6.4805,6.25872 -12.2626,16.50476 -20.5749,21.99399 -34.4603,22.75664 -7.284,0.40008 -9.7623,0.0858 -13.9571,-1.76973 -6.7002,-2.96382 -16.012,-11.88269 -21.7969,-20.8771 -4.4763,-6.95971 -4.6585,-7.10429 -4.9661,-3.94095 -0.1756,1.80611 2.1642,12.03495 5.1994,22.73074 3.0353,10.69581 5.5187,19.68529 5.5187,19.97664 1.0708,3.52172 -18.9333,0.269 -26.2231,-0.67872 z m 18.5609,-3.85179 c 0,-1.10338 -12.2193,-46.70465 -13.2251,-49.35469 -0.8202,-2.16113 -1.2758,-2.29647 -4.2457,-1.26117 l -3.3268,1.15975 v 9.03195 c 0,4.96757 0.3414,12.67744 0.7587,17.13303 l 0.7587,8.10107 8.4717,7.93593 c 7.5988,7.11824 10.8085,9.27239 10.8085,7.25413 z m 50.2811,-19.63556 c 10.0263,-5.45699 24.6489,-24.30923 22.7313,-29.30639 -0.9517,-2.48014 -3.4924,-2.30361 -14.7079,1.02187 -12.7773,3.78857 -31.2143,4.70945 -42.98,2.14675 -4.5153,-0.98347 -9.5642,-2.0779 -11.2198,-2.43206 -4.117,-0.88071 -3.9124,0.87836 1.0946,9.41143 5.4214,9.239 13.3949,17.88111 19.1536,20.75958 6.8061,3.402 18.0066,2.71031 25.9282,-1.60118 z m 5.1593,-37.10262 c 10.868,-3.44453 42.3218,-19.23265 54.6242,-27.41838 10.6456,-7.08336 16.2554,-13.52969 22.3879,-25.72673 7.444,-14.80537 14.2252,-31.74108 14.2252,-35.52677 0,-4.75371 -6.5964,-27.69568 -10.4032,-36.18182 l -2.9367,-6.54657 -3.6006,7.45516 c -5.9811,12.38442 -10.7338,16.07896 -20.6841,16.07896 -5.0871,0 -6.7017,-0.54316 -10.7154,-3.60451 -2.9392,-2.24175 -5.9662,-6.02983 -8.0067,-10.01958 -2.8117,-5.49798 -3.2751,-7.60382 -3.2411,-14.73022 0.074,-15.46395 9.2423,-28.56542 19.9907,-28.56542 1.7607,0 4.7535,-0.31043 6.6505,-0.68983 4.0878,-0.81756 3.9246,-2.13043 -1.3766,-11.07723 -2.516,-4.246317 -4.0541,-5.746699 -5.8912,-5.746699 -1.3674,0 -9.1793,2.462873 -17.3597,5.473049 -8.1805,3.01018 -15.5667,5.47305 -16.4138,5.47305 -1.9804,0 -1.9475,-1.51036 0.1203,-5.50888 2.0239,-3.913861 4.9082,-5.465712 17.018,-9.156299 5.1559,-1.571291 10.3237,-3.551112 11.4841,-4.399589 2.0751,-1.517403 2.0707,-1.623087 -0.274,-6.449037 -1.311,-2.698499 -5.7009,-9.021601 -9.7553,-14.051346 -26.5211,-32.901374 -52.7679,-55.107324 -83.0734,-70.2836112 -18.8045,-9.4168758 -16.1698,-9.4209588 -27.3506,0.042361 -11.1591,9.4450402 -13.2573,10.4841317 -18.2682,9.047029 -1.9933,-0.5716273 -4.812,-1.0393651 -6.2638,-1.0393651 -5.7524,0 -16.1109,15.5351883 -18.6813,28.0174103 -0.608,2.952503 -2.1026,14.23454 -3.3214,25.07118 -1.2188,10.83664 -2.5129,20.807706 -2.8759,22.15794 -0.6415,2.386064 -0.4338,2.452638 7.4015,2.372622 7.0947,-0.07246 10.4089,0.712296 27.6337,6.54324 10.7646,3.644066 20.729,7.383627 22.143,8.310126 2.7901,1.828129 6.4707,8.026179 5.4013,9.095599 -0.3633,0.3633 -10.4933,-2.67712 -22.511,-6.7565 -21.0528,-7.146265 -37.6147,-11.136359 -40.9354,-9.862102 -0.8735,0.335192 -3.5668,3.939972 -5.9851,8.010608 -2.4183,4.070634 -7.9452,11.295754 -12.2818,16.055804 -4.5761,5.02286 -9.1665,11.41068 -10.9389,15.22232 -2.7437,5.90033 -2.9479,7.12376 -2.0096,12.04071 1.5611,8.18106 6.0234,21.05236 13.735,39.61759 15.1058,36.36642 23.4906,52.73297 31.4268,61.34264 10.8906,11.81492 56.2995,35.23838 74.9094,38.64086 8.9252,1.63181 26.4334,0.30532 36.0032,-2.72777 z m -152.0091,-86.6719 c 2.9166,-0.78137 3.1583,0.35777 -4.1491,-19.55234 -2.8725,-7.82646 -6.0938,-17.43166 -7.1585,-21.34489 -1.0647,-3.91324 -2.1035,-7.32061 -2.3085,-7.57196 -0.205,-0.25134 -3.1546,-0.8345 -6.5547,-1.29591 -5.4058,-0.73358 -6.8517,-1.49844 -11.5145,-6.0912 -6.5496,-6.45106 -8.0067,-5.93712 -11.679,4.11924 -6.664,18.24896 1.7792,39.00291 19.5569,48.07243 6.6929,3.41444 18.1554,5.17885 23.8074,3.66463 z m 298.2319,-18.02747 c 4.1667,-6.69787 6.7715,-17.93255 5.8562,-25.25823 -0.831,-6.65084 -2.2257,-9.64765 -3.7239,-8.00118 -1.0592,1.16403 -10.0496,36.50792 -10.0496,39.50783 0,2.90323 4.3691,-0.54495 7.9173,-6.24842 z"
         style="display:inline;opacity:1;fill:#464646;fill-opacity:1;fill-rule:nonzero;stroke:none;stroke-width:87.12388611;stroke-linecap:square;stroke-linejoin:miter;stroke-miterlimit:4;stroke-dasharray:none;stroke-dashoffset:386.19207764;stroke-opacity:1;paint-order:fill markers stroke" />
      <path
         inkscape:connector-curvature="0"
         id="path30321"
         d="m 2515.4667,171.70173 c -4.2624,-1.28063 -10.7684,-7.54849 -13.6033,-13.10528 -1.8026,-3.53341 -2.1873,-6.50747 -2.2222,-17.1785 l -0.042,-12.90527 -3.5154,-2.18922 c -1.9334,-1.20407 -4.4246,-4.05057 -5.5361,-6.32556 -1.8945,-3.87796 -1.9073,-4.30948 -0.2045,-6.90826 2.7025,-4.12452 5.5981,-3.05561 5.1653,1.90674 -0.2796,3.20507 0.2088,4.37752 2.6105,6.26664 3.845,3.02448 4.9527,2.93396 8.3985,-0.68626 2.6293,-2.76225 2.7395,-3.23557 1.3382,-5.74671 -2.5319,-4.53738 -2.0221,-9.52742 1.1882,-11.63089 3.8399,-2.51603 5.7644,-0.60392 3.2517,3.2309 -3.4531,5.27013 0.997,8.34844 12.126,8.38795 9.1005,0.0323 19.0463,14.04317 19.0463,26.83086 0,8.13316 -2.1302,15.73056 -5.9603,21.25739 -4.8923,7.05955 -14.7396,10.98914 -22.0408,8.79547 z"
         style="display:inline;opacity:1;fill:#464646;fill-opacity:1;fill-rule:nonzero;stroke:none;stroke-width:87.12388611;stroke-linecap:square;stroke-linejoin:miter;stroke-miterlimit:4;stroke-dasharray:none;stroke-dashoffset:386.19207764;stroke-opacity:1;paint-order:fill markers stroke" />
      <path
         inkscape:connector-curvature="0"
         id="path30323"
         d="m 2587.7446,195.87257 c -8.0437,-4.92444 -11.8763,-8.15003 -11.8763,-9.99513 0,-2.84622 2.462,-2.29003 9.1292,2.06232 2.2171,1.44736 5.2713,3.26003 6.7872,4.02816 l 2.756,1.39658 3.0293,-1.38686 c 1.6661,-0.76277 5.3459,-2.99081 8.1773,-4.9512 2.8314,-1.96038 5.5088,-3.56433 5.9499,-3.56433 0.927,0 1.9351,1.64519 1.9351,3.158 0,1.67432 -11.7692,9.97998 -17.5355,12.37502 l -1.9374,0.80467 z"
         style="display:inline;opacity:1;fill:#464646;fill-opacity:1;fill-rule:nonzero;stroke:none;stroke-width:87.12388611;stroke-linecap:square;stroke-linejoin:miter;stroke-miterlimit:4;stroke-dasharray:none;stroke-dashoffset:386.19207764;stroke-opacity:1;paint-order:fill markers stroke" />
      <path
         inkscape:connector-curvature="0"
         id="path30325"
         d="m 2586.8144,248.05021 c -8.2856,-1.32739 -18.5587,-5.82961 -26.2836,-11.5189 -7.8253,-5.76322 -10.3859,-8.13027 -10.3859,-9.60077 0,-1.49548 0.086,-1.52052 2.7365,-0.79684 1.0536,0.28765 6.5951,0.90835 12.3144,1.37932 5.7193,0.47097 12.4922,1.23159 15.0509,1.69026 10.0738,1.80586 11.9214,1.99873 16.1455,1.6854 2.4081,-0.17863 6.8413,-0.80852 9.8515,-1.39975 3.0102,-0.59123 10.2756,-1.47078 16.1455,-1.95455 5.8698,-0.48377 11.6313,-1.13487 12.8033,-1.4469 2.3239,-0.61874 3.1508,-0.0946 2.6815,1.6999 -0.3287,1.257 -10.717,9.39875 -16.1899,12.68875 -5.1411,3.09055 -11.4349,5.56312 -17.1824,6.7503 -5.2215,1.07853 -13.6476,1.47097 -17.6873,0.82378 z m 17.2401,-4.61918 c 4.0623,-1.39183 13.3494,-5.99175 16.0086,-7.9291 1.2794,-0.93204 2.3261,-2.05135 2.3261,-2.48735 0,-1.84498 -6.5476,-1.74626 -17.7301,0.26731 -7.6117,1.37062 -13.8911,1.36757 -21.4463,-0.0104 -10.8472,-1.97837 -17.7433,-1.98114 -17.7433,-0.007 0,1.61968 12.782,8.39707 19.6528,10.42049 4.563,1.34377 14.6646,1.20834 18.9322,-0.25382 z"
         style="display:inline;opacity:1;fill:#464646;fill-opacity:1;fill-rule:nonzero;stroke:none;stroke-width:87.12388611;stroke-linecap:square;stroke-linejoin:miter;stroke-miterlimit:4;stroke-dasharray:none;stroke-dashoffset:386.19207764;stroke-opacity:1;paint-order:fill markers stroke" />
      <path
         sodipodi:nodetypes="ssssccccscccsssscscscccscccscccccccscsccccs"
         inkscape:connector-curvature="0"
         id="path30243-2"
         d="m 2540.4307,348.24408 c -104.4868,-22.6655 -181.8482,-103.5176 -199.3822,-208.3787 -5.2563,-31.435 -3.4346,-73.828201 4.454,-103.648701 6.5154,-24.6295 22.2812,-59.3959 36.2884,-80.0224 11.4706,-16.8912 38.4414,-45.4244 54.6519,-57.817799 118.719,-90.7645 286.1579,-61.6596 368.5456,64.061899 l 13.3412,20.3582 4.4445,-8.0468 c 8.606,-15.5814 29.0117,-41.6621 44.0104,-56.2502 21.9348,-21.334299 38.2689,-32.918999 65.5166,-46.466499 113.6204,-56.492 251.7125,-19.6227 322.4174,86.082299 7.2002,10.7643 13.7046,20.919 14.4542,22.5658 1.1529,2.5328 1.573,2.5328 2.7259,0 5.4684,-12.0135 31.1035,-45.9416 45.6836,-60.4624 99.9812,-99.574699 259.3986,-99.351199 359.3782,0.5039 15.5597,15.5403 44.5545,54.6213 44.5545,60.0534 0,3.9377 3.8255,1.4759 6.3639,-4.0954 11.3504,-24.9114 50.277,-68.0304 77.9326,-86.325999 30.7039,-20.3122 63.3693,-33.9956 96.7258,-40.5181 25.3938,-4.9654 71.9349,-4.865 95.9141,0.207 97.3956,20.6007 171.705,90.881499 197.6096,186.896499 7.537,42.717305 10.3404,86.834191 -0.1214,126.006101 -3.2079,11.906 -11.1219,32.5941 -17.5865,45.9737 -36.9716,76.5181 -106.1769,127.9838 -190.2856,141.509 -23.9201,3.8465 -76.5338,1.6906 -98.05,-4.0176 -67.9258,-18.0208 -125.9054,-60.8024 -157.7381,-116.3908 -4.1143,-7.1847 -7.9731,-13.0731 -8.5752,-13.0853 -0.602,-0.013 -6.4806,8.5786 -13.0634,19.0906 -16.2255,25.9103 -46.3012,56.6199 -72.6107,74.1414 -24.8006,16.5165 -48.8702,27.4003 -78.1462,35.3361 -41.221,6.72787 -82.7132,11.43971 -122.4088,1.0612 -34.2945,-9.1131 -66.9178,-24.5395 -92.506,-43.7429 -23.9119,-17.9456 -56.8444,-55.1501 -68.9108,-77.8504 -2.381,-4.4792 -4.8439,-8.1251 -5.4731,-8.102 -0.6292,0.023 -4.9419,6.5353 -9.5838,14.4717 -15.8833,27.1565 -37.0057,50.0493 -67.0958,72.7197 -81.705,61.558 -199.4337,65.216 -286.7804,8.9107 -27.0519,-17.4381 -60.4879,-50.9727 -76.7192,-76.9455 -6.5693,-10.512 -12.4368,-19.1204 -13.0388,-19.1297 -0.6021,-0.01 -4.2286,5.636 -8.0591,12.5451 -10.4968,18.9334 -34.3613,47.4023 -52.4323,62.5486 -30.7005,25.7316 -65.5936,43.6898 -105.8219,54.4625 -24.8712,6.6602 -83.7811,7.6144 -110.6231,1.7918 z"
         style="opacity:1;fill:none;fill-opacity:1;fill-rule:nonzero;stroke:#ffffff;stroke-width:26.1371689;stroke-linecap:square;stroke-linejoin:miter;stroke-miterlimit:4;stroke-dasharray:none;stroke-dashoffset:386.19207764;stroke-opacity:1;paint-order:fill markers stroke" />
      <text
         id="text30349"
         y="441.93881"
         x="2337.4988"
         style="font-style:normal;font-variant:normal;font-weight:bold;font-stretch:normal;font-size:48px;line-height:1.25;font-family:'Segoe Script';-inkscape-font-specification:'Segoe Script Bold';letter-spacing:0px;word-spacing:0px;fill:#ffffff;fill-opacity:1;stroke:none;stroke-width:4.35619402;"
         xml:space="preserve"><tspan
           style="font-style:normal;font-variant:normal;font-weight:bold;font-stretch:normal;font-size:64px;font-family:'Segoe UI';-inkscape-font-specification:'Segoe UI Bold';letter-spacing:5.21999979px;stroke-width:4.35619402;fill:#ffffff;fill-opacity:1;"
           y="441.93881"
           x="2337.4988"
           id="tspan30347"
           sodipodi:role="line">Desarrollado por: Cinthia, Emilio, Pablo y Jose Luis</tspan></text>
    </g>
  </g>
</svg>
