<?xml version="1.0" encoding="UTF-8" standalone="no"?>
<svg
   xmlns:dc="http://purl.org/dc/elements/1.1/"
   xmlns:cc="http://creativecommons.org/ns#"
   xmlns:rdf="http://www.w3.org/1999/02/22-rdf-syntax-ns#"
   xmlns:svg="http://www.w3.org/2000/svg"
   xmlns="http://www.w3.org/2000/svg"
   id="svg4412"
   version="1.1"
   viewBox="0 0 35.630305 35.630307"
   height="35.630306mm"
   width="35.630306mm">
  <defs
     id="defs4406">
    <clipPath
       id="clipPath1556"
       clipPathUnits="userSpaceOnUse">
      <path
         id="path1554"
         d="m 242.762,448.246 h 35.55 v -71.091 h -35.55 z" />
    </clipPath>
    <clipPath
       id="clipPath1708"
       clipPathUnits="userSpaceOnUse">
      <path
         id="path1706"
         d="M 365.557,372.594 H 455.07 V 359.197 H 365.557 Z" />
    </clipPath>
    <clipPath
       id="clipPath1300"
       clipPathUnits="userSpaceOnUse">
      <path
         id="path1298"
         d="m 367.886,300.778 h 65.195 V 235.58 h -65.195 z" />
    </clipPath>
    <clipPath
       id="clipPath1372"
       clipPathUnits="userSpaceOnUse">
      <path
         id="path1370"
         d="M 363.392,237.141 H 403.03 V 205.229 H 363.392 Z" />
    </clipPath>
    <clipPath
       id="clipPath1616"
       clipPathUnits="userSpaceOnUse">
      <path
         id="path1614"
         d="M 57.2368,150.854 H 130.65 V 77.4414 H 57.2368 Z" />
    </clipPath>
    <clipPath
       id="clipPath664"
       clipPathUnits="userSpaceOnUse">
      <path
         id="path662"
         d="m 262.361,66.1875 h 30.868 V 44.2773 h -30.868 z" />
    </clipPath>
    <clipPath
       id="clipPath680"
       clipPathUnits="userSpaceOnUse">
      <path
         id="path678"
         d="m 206.024,83.7422 h 33.13 v -18.583 h -33.13 z" />
    </clipPath>
    <clipPath
       id="clipPath786"
       clipPathUnits="userSpaceOnUse">
      <path
         id="path784"
         d="m 61,448.16 h 64.61 v -70.1 H 61 Z" />
    </clipPath>
    <clipPath
       id="clipPath1064"
       clipPathUnits="userSpaceOnUse">
      <path
         id="path1062"
         d="m 170,444.75 h 70.24 V 377.41 H 170 Z" />
    </clipPath>
    <clipPath
       id="clipPath1120"
       clipPathUnits="userSpaceOnUse">
      <path
         id="path1118"
         d="m 289.83,436.26 h 63.56 v -58.67 h -63.56 z" />
    </clipPath>
    <clipPath
       id="clipPath1158"
       clipPathUnits="userSpaceOnUse">
      <path
         id="path1156"
         d="m 402.08,432.49 h 65.86 v -54.83 h -65.86 z" />
    </clipPath>
    <clipPath
       id="clipPath1182"
       clipPathUnits="userSpaceOnUse">
      <path
         id="path1180"
         d="M 397.86,434.26 H 430.9 V 409.1 h -33.04 z" />
    </clipPath>
    <clipPath
       id="clipPath32"
       clipPathUnits="userSpaceOnUse">
      <path
         id="path30"
         d="m 54.02,326.01 h 70.94 V 260.67 H 54.02 Z" />
    </clipPath>
    <clipPath
       id="clipPath824"
       clipPathUnits="userSpaceOnUse">
      <path
         id="path822"
         d="m 175.93,327.18 h 64.13 v -65.26 h -64.13 z" />
    </clipPath>
    <clipPath
       id="clipPath844"
       clipPathUnits="userSpaceOnUse">
      <path
         id="path842"
         d="m 183.243,324.715 h 25.326 v -33.647 h -25.326 z" />
    </clipPath>
    <clipPath
       id="clipPath908"
       clipPathUnits="userSpaceOnUse">
      <path
         id="path906"
         d="m 197.267,316.041 h 19.948 v -35.416 h -19.948 z" />
    </clipPath>
    <clipPath
       id="clipPath124"
       clipPathUnits="userSpaceOnUse">
      <path
         id="path122"
         d="m 291.95,324.64 h 62.06 v -63.89 h -62.06 z" />
    </clipPath>
    <clipPath
       id="clipPath146"
       clipPathUnits="userSpaceOnUse">
      <path
         id="path144"
         d="m 283.858,324.585 h 46.95 v -27.81 h -46.95 z" />
    </clipPath>
    <clipPath
       id="clipPath166"
       clipPathUnits="userSpaceOnUse">
      <path
         id="path164"
         d="m 286.145,322.192 h 3.077 v -3.077 h -3.077 z" />
    </clipPath>
    <clipPath
       id="clipPath182"
       clipPathUnits="userSpaceOnUse">
      <path
         id="path180"
         d="m 286.145,318.236 h 3.077 v -8.572 h -3.077 z" />
    </clipPath>
    <clipPath
       id="clipPath202"
       clipPathUnits="userSpaceOnUse">
      <path
         id="path200"
         d="m 396.97,320.9 h 70.44 v -60.11 h -70.44 z" />
    </clipPath>
    <clipPath
       id="clipPath228"
       clipPathUnits="userSpaceOnUse">
      <path
         id="path226"
         d="m 394.101,323.768 h 56.548 v -8.047 h -56.548 z" />
    </clipPath>
    <clipPath
       id="clipPath244"
       clipPathUnits="userSpaceOnUse">
      <path
         id="path242"
         d="m 419.483,308.056 h 5.784 v -2.671 h -5.784 z" />
    </clipPath>
    <clipPath
       id="clipPath260"
       clipPathUnits="userSpaceOnUse">
      <path
         id="path258"
         d="m 402.132,315.721 h 42.336 v -1.704 h -42.336 z" />
    </clipPath>
    <clipPath
       id="clipPath280"
       clipPathUnits="userSpaceOnUse">
      <path
         id="path278"
         d="m 395.92,295.074 h 2.318 v -2.318 h -2.318 z" />
    </clipPath>
    <clipPath
       id="clipPath300"
       clipPathUnits="userSpaceOnUse">
      <path
         id="path298"
         d="m 394.101,323.768 h 5.939 v -8.047 h -5.939 z" />
    </clipPath>
    <clipPath
       id="clipPath316"
       clipPathUnits="userSpaceOnUse">
      <path
         id="path314"
         d="m 444.711,323.768 h 5.938 v -8.047 h -5.938 z" />
    </clipPath>
    <clipPath
       id="clipPath332"
       clipPathUnits="userSpaceOnUse">
      <path
         id="path330"
         d="m 395.92,303.125 h 2.318 v -6.698 h -2.318 z" />
    </clipPath>
  </defs>
  <metadata
     id="metadata4409">
    <rdf:RDF>
      <cc:Work
         rdf:about="">
        <dc:format>image/svg+xml</dc:format>
        <dc:type
           rdf:resource="http://purl.org/dc/dcmitype/StillImage" />
        <dc:title></dc:title>
      </cc:Work>
    </rdf:RDF>
  </metadata>
  <g
     transform="translate(58.261866,9.2727495)"
     id="layer1">
    <g
       id="g3632"
       transform="matrix(0.35277777,0,0,-0.35277777,-189.33135,117.35847)">
      <g
         id="g192"
         transform="translate(469.7002,308.46)">
        <path
           d="m 0,0 c 0,-5.1 -0.8,-10.02 -2.29,-14.63 -6.17,-19.17 -24.16,-33.04 -45.38,-33.04 -2.42,0 -4.8,0.18 -7.13,0.53 -22.94,3.44 -40.53,23.23 -40.53,47.14 0,26.32 21.34,47.66 47.66,47.66 C -21.34,47.66 0,26.32 0,0"
           style="fill:#e74c3c;fill-opacity:1;fill-rule:nonzero;stroke:none"
           id="path194" />
      </g>
      <g
         id="g196">
        <g
           id="g198" />
        <g
           id="g210">
          <g
             clip-path="url(#clipPath202)"
             id="g208"
             style="opacity:0.5">
            <g
               transform="translate(467.4102,293.8301)"
               id="g206">
              <path
                 d="m 0,0 c -6.17,-19.17 -24.16,-33.04 -45.38,-33.04 -2.42,0 -4.8,0.18 -7.13,0.53 l -17.93,29.35 53.68,30.23 z"
                 style="fill:#c0392b;fill-opacity:1;fill-rule:nonzero;stroke:none"
                 id="path204" />
            </g>
          </g>
        </g>
      </g>
      <path
         d="m 435.612,284.473 h -26.475 v 9.146 h 26.475 z"
         style="fill:#212121;fill-opacity:1;fill-rule:nonzero;stroke:none"
         id="path212" />
      <path
         d="M 437.98,303.246 H 406.769 V 292.89 h 31.211 z"
         style="fill:#212121;fill-opacity:1;fill-rule:nonzero;stroke:none"
         id="path214" />
      <g
         id="g216"
         transform="translate(447.7764,323.7676)">
        <path
           d="m 0,0 h -50.803 c -1.586,0 -2.873,-1.286 -2.873,-2.873 V -30.22 c 0,-1.587 1.287,-2.874 2.873,-2.874 h 10.894 v 10.99 h 29.015 v -10.99 H 0 c 1.586,0 2.873,1.287 2.873,2.874 V -2.873 C 2.873,-1.286 1.586,0 0,0"
           style="fill:#2b2b2b;fill-opacity:1;fill-rule:nonzero;stroke:none"
           id="path218" />
      </g>
      <path
         d="m 432.156,286.563 h -19.563 v 11.459 h 19.563 z"
         style="fill:#ffffff;fill-opacity:1;fill-rule:nonzero;stroke:none"
         id="path220" />
      <g
         id="g222">
        <g
           id="g224" />
        <g
           id="g236">
          <g
             clip-path="url(#clipPath228)"
             id="g234"
             style="opacity:0.19999701">
            <g
               transform="translate(450.6494,315.7207)"
               id="g232">
              <path
                 d="m 0,0 v 5.174 c 0,1.587 -1.287,2.873 -2.873,2.873 h -50.803 c -1.586,0 -2.873,-1.286 -2.873,-2.873 V 0 Z"
                 style="fill:#2b2b2b;fill-opacity:1;fill-rule:nonzero;stroke:none"
                 id="path230" />
            </g>
          </g>
        </g>
      </g>
      <g
         id="g238">
        <g
           id="g240" />
        <g
           id="g252">
          <g
             clip-path="url(#clipPath244)"
             id="g250"
             style="opacity:0.5">
            <path
               d="m 425.267,307.149 h -5.783 v 0.907 h 5.783 z"
               style="fill:#bdc3c7;fill-opacity:1;fill-rule:nonzero;stroke:none"
               id="path246" />
            <path
               d="m 425.267,305.385 h -5.783 v 0.906 h 5.783 z"
               style="fill:#bdc3c7;fill-opacity:1;fill-rule:nonzero;stroke:none"
               id="path248" />
          </g>
        </g>
      </g>
      <g
         id="g254">
        <g
           id="g256" />
        <g
           id="g268">
          <g
             clip-path="url(#clipPath260)"
             id="g266"
             style="opacity:0.5">
            <g
               transform="translate(443.2998,314.0171)"
               id="g264">
              <path
                 d="m 0,0 h -39.999 l -1.169,1.704 H 1.168 Z"
                 style="fill:#1c1c1c;fill-opacity:1;fill-rule:nonzero;stroke:none"
                 id="path262" />
            </g>
          </g>
        </g>
      </g>
      <g
         id="g270"
         transform="translate(448.7666,312.9092)">
        <path
           d="m 0,0 c 0,-0.64 -0.52,-1.159 -1.159,-1.159 -0.64,0 -1.158,0.519 -1.158,1.159 0,0.64 0.518,1.159 1.158,1.159 C -0.52,1.159 0,0.64 0,0"
           style="fill:#1abc9c;fill-opacity:1;fill-rule:nonzero;stroke:none"
           id="path272" />
      </g>
      <g
         id="g274">
        <g
           id="g276" />
        <g
           id="g288">
          <g
             clip-path="url(#clipPath280)"
             id="g286"
             style="opacity:0.19999701">
            <g
               transform="translate(398.2383,293.915)"
               id="g284">
              <path
                 d="m 0,0 c 0,-0.64 -0.52,-1.159 -1.159,-1.159 -0.64,0 -1.159,0.519 -1.159,1.159 0,0.64 0.519,1.159 1.159,1.159 C -0.52,1.159 0,0.64 0,0"
                 style="fill:#2b2b2b;fill-opacity:1;fill-rule:nonzero;stroke:none"
                 id="path282" />
            </g>
          </g>
        </g>
      </g>
      <g
         id="g290"
         transform="translate(448.7666,309.5156)">
        <path
           d="m 0,0 c 0,-0.639 -0.52,-1.158 -1.159,-1.158 -0.64,0 -1.158,0.519 -1.158,1.158 0,0.64 0.518,1.159 1.158,1.159 C -0.52,1.159 0,0.64 0,0"
           style="fill:#3498db;fill-opacity:1;fill-rule:nonzero;stroke:none"
           id="path292" />
      </g>
      <g
         id="g294">
        <g
           id="g296" />
        <g
           id="g308">
          <g
             clip-path="url(#clipPath300)"
             id="g306"
             style="opacity:0.19999701">
            <g
               transform="translate(400.04,323.7676)"
               id="g304">
              <path
                 d="M 0,0 H -3.066 C -4.652,0 -5.939,-1.286 -5.939,-2.873 V -8.047 H 0 Z"
                 style="fill:#2b2b2b;fill-opacity:1;fill-rule:nonzero;stroke:none"
                 id="path302" />
            </g>
          </g>
        </g>
      </g>
      <g
         id="g310">
        <g
           id="g312" />
        <g
           id="g324">
          <g
             clip-path="url(#clipPath316)"
             id="g322"
             style="opacity:0.19999701">
            <g
               transform="translate(444.7109,323.7676)"
               id="g320">
              <path
                 d="M 0,0 H 3.065 C 4.651,0 5.938,-1.286 5.938,-2.873 V -8.047 H 0 Z"
                 style="fill:#2b2b2b;fill-opacity:1;fill-rule:nonzero;stroke:none"
                 id="path318" />
            </g>
          </g>
        </g>
      </g>
      <g
         id="g326">
        <g
           id="g328" />
        <g
           id="g340">
          <g
             clip-path="url(#clipPath332)"
             id="g338"
             style="opacity:0.19999701">
            <g
               transform="translate(397.0791,303.1245)"
               id="g336">
              <path
                 d="m 0,0 c -0.64,0 -1.159,-0.52 -1.159,-1.159 v -4.38 c 0,-0.639 0.519,-1.159 1.159,-1.159 0.64,0 1.159,0.52 1.159,1.159 v 4.38 C 1.159,-0.52 0.64,0 0,0"
                 style="fill:#2b2b2b;fill-opacity:1;fill-rule:nonzero;stroke:none"
                 id="path334" />
            </g>
          </g>
        </g>
      </g>
    </g>
  </g>
</svg>
